<?xml version="1.0" encoding="UTF-8"?>
<!-- Created with Inkscape (http://www.inkscape.org/) -->
<svg width="237" height="14" version="1.1" viewBox="0 0 62.706 3.7042" xmlns="http://www.w3.org/2000/svg">
 <g transform="translate(-9.0007 1.4868)">
  <g fill="#333" stroke-width=".1961">
   <path d="m11.07 1.0557q0.06949 0 0.09805 0.030642 0.03061 0.030642 0.03061 0.10827 0 0.077625-0.03061 0.10826-0.02849 0.030642-0.09805 0.030642h-0.13074q-0.06337 0-0.12052-0.014295-0.05724-0.016347-0.10418-0.049035-0.04499-0.032693-0.07968-0.081709-0.03275-0.049031-0.047-0.11644-0.16136 0.14095-0.35543 0.2247-0.19405 0.081711-0.4208 0.081711-0.15321 0-0.2819-0.040866-0.12869-0.0388-0.22266-0.11438-0.093965-0.077625-0.14708-0.18793-0.05107-0.11031-0.05107-0.2533 0-0.17159 0.065356-0.29211 0.067409-0.12052 0.17976-0.19406 0.11439-0.075582 0.26351-0.11031 0.15116-0.034726 0.31867-0.034726 0.16546 0 0.32072 0.026556 0.15524 0.026556 0.30027 0.077624v-0.17363q0-0.19815-0.096-0.29007-0.09398-0.093966-0.32479-0.093966-0.16548 0-0.33298 0.04494-0.16546 0.042898-0.29415 0.13482-0.046988 0.034726-0.096008 0.024513-0.04903-0.010214-0.093967-0.073538-0.044938-0.063325-0.036765-0.11235 0.010223-0.051069 0.057187-0.085795 0.079668-0.05924 0.17568-0.10214 0.09601-0.044941 0.19815-0.071496 0.10418-0.028597 0.2104-0.040854 0.10827-0.014299 0.21245-0.014299 0.36565 0 0.5454 0.17159 0.1818 0.17159 0.1818 0.50864v0.81301q0 0.16138 0.13481 0.16138zm-0.51274-0.52499q-0.14094-0.046987-0.30027-0.069454-0.15933-0.02247-0.31867-0.02247-0.11031 0-0.20428 0.018387-0.091923 0.01839-0.15933 0.059237-0.067406 0.038815-0.10622 0.10418-0.036765 0.063335-0.036765 0.15525 0 0.14912 0.10214 0.23287 0.10418 0.081711 0.29007 0.081711 0.21857 0 0.40037-0.089881 0.1818-0.091923 0.33296-0.24717z"/>
   <path d="m12.471-1.0687h-0.55768q-0.06949 0-0.1001-0.030642-0.02852-0.030642-0.02852-0.10827 0-0.077625 0.02852-0.10826 0.03061-0.030642 0.1001-0.030642h0.73539q0.06949 0 0.09805 0.030642 0.03061 0.030642 0.03061 0.10826v2.2634h0.65573q0.06949 0 0.09805 0.030642 0.03061 0.030642 0.03061 0.10827 0 0.077625-0.03061 0.10826-0.02847 0.030642-0.09805 0.030642h-1.6015q-0.06949 0-0.1001-0.030642-0.0285-0.030642-0.0285-0.10826 0-0.077625 0.0285-0.10827 0.03061-0.030642 0.1001-0.030642h0.63938z"/>
   <path d="m14.471 0.46539q0.01623 0.30846 0.16955 0.4637 0.15526 0.15321 0.44124 0.15321 0.20632 0 0.40037-0.046989 0.19407-0.046989 0.33501-0.12869 0.06544-0.036764 0.10827-0.006124 0.04499 0.030642 0.07154 0.09601 0.02856 0.065357 0.01225 0.11848-0.01623 0.051061-0.08375 0.085795-0.07968 0.038816-0.17773 0.071506-0.096 0.032693-0.20632 0.057188-0.10825 0.022469-0.22469 0.034725-0.11644 0.014296-0.23491 0.014296-0.2247 0-0.39835-0.067406-0.17364-0.069456-0.29211-0.1961-0.11849-0.12869-0.1818-0.3105-0.06122-0.18385-0.06122-0.41468 0-0.22266 0.07152-0.40446 0.07347-0.18385 0.20225-0.31254 0.12869-0.13074 0.3064-0.20019 0.17978-0.071496 0.39426-0.071496 0.22675 0 0.40038 0.071496 0.17363 0.069454 0.2921 0.19406 0.12053 0.12461 0.1859 0.2962 0.06538 0.17159 0.07763 0.37587 0 0.069454-0.03061 0.098052-0.02855 0.028597-0.09805 0.028597zm0.65165-0.76807q-0.25536 0-0.41876 0.12869-0.16138 0.12665-0.21244 0.35339h1.2481q-0.04288-0.23083-0.19405-0.35544-0.15116-0.12665-0.42284-0.12665z"/>
   <path d="m16.733 1.0557 0.66388-0.69658-0.60057-0.63529h-0.14502q-0.06949 0-0.10009-0.030641-0.02859-0.030641-0.02859-0.10827 0-0.077624 0.02859-0.10827 0.03061-0.030642 0.10009-0.030642h0.7027q0.06949 0 0.09805 0.030642 0.03061 0.030642 0.03061 0.10827 0 0.077624-0.03061 0.10827-0.02851 0.030641-0.09805 0.030641h-0.15526l0.43307 0.46983 0.4351-0.46983h-0.11235q-0.06949 0-0.1001-0.030641-0.02848-0.030641-0.02848-0.10827 0-0.077624 0.02848-0.10827 0.03061-0.030642 0.1001-0.030642h0.62099q0.06949 0 0.09805 0.030642 0.03061 0.030642 0.03061 0.10827 0 0.077624-0.03061 0.10827-0.02851 0.030641-0.09805 0.030641h-0.13277l-0.60669 0.63938 0.65571 0.69249h0.1042q0.06949 0 0.09805 0.030642 0.03061 0.030642 0.03061 0.10827 0 0.077625-0.03061 0.10826-0.02858 0.030642-0.09805 0.030642h-0.70271q-0.06949 0-0.1001-0.030642-0.02849-0.030642-0.02849-0.10826 0-0.077625 0.02849-0.10827 0.03061-0.030642 0.1001-0.030642h0.1961l-0.49025-0.52703-0.48822 0.52703h0.16138q0.06949 0 0.09805 0.030642 0.03061 0.030642 0.03061 0.10827 0 0.077625-0.03061 0.10826-0.02848 0.030642-0.09805 0.030642h-0.64143q-0.06949 0-0.1001-0.030642-0.02848-0.030642-0.02848-0.10826 0-0.077625 0.02848-0.10827 0.03061-0.030642 0.1001-0.030642z"/>
   <path d="m21.104 1.0557q0.06949 0 0.09806 0.030642 0.03061 0.030642 0.03061 0.10827 0 0.077625-0.03061 0.10826-0.02859 0.030642-0.09806 0.030642h-0.13073q-0.06337 0-0.12052-0.014295-0.05724-0.016347-0.1042-0.049035-0.04499-0.032693-0.07966-0.081709-0.03275-0.049031-0.04697-0.11644-0.16138 0.14095-0.35543 0.2247-0.19407 0.081711-0.42082 0.081711-0.15321 0-0.2819-0.040866-0.12869-0.03881-0.22266-0.11439-0.09396-0.077624-0.14707-0.18793-0.05112-0.11031-0.05112-0.2533 0-0.17159 0.06535-0.29211 0.06735-0.12052 0.17975-0.19406 0.1144-0.075582 0.26353-0.11031 0.15116-0.034726 0.31867-0.034726 0.16546 0 0.32071 0.026556 0.15524 0.026556 0.30028 0.077624v-0.17363q0-0.19815-0.096-0.29007-0.09398-0.093966-0.32481-0.093966-0.16546 0-0.33297 0.04494-0.16546 0.042898-0.29416 0.13482-0.04697 0.034726-0.096 0.024514-0.04898-0.010214-0.09397-0.073538-0.04499-0.063325-0.03674-0.11235 0.01011-0.051069 0.05724-0.085795 0.07968-0.05924 0.17568-0.10214 0.096-0.044941 0.19815-0.071496 0.10418-0.028597 0.2104-0.040854 0.10827-0.014299 0.21244-0.014299 0.36565 0 0.54543 0.17159 0.1818 0.17159 0.1818 0.50864v0.81301q0 0.16138 0.13481 0.16138zm-0.51273-0.52499q-0.14094-0.046987-0.30029-0.069454-0.15934-0.02247-0.31867-0.02247-0.1103 0-0.20428 0.018387-0.09192 0.01839-0.15933 0.059237-0.06735 0.038815-0.10622 0.10418-0.03674 0.063335-0.03674 0.15525 0 0.14912 0.10215 0.23287 0.10417 0.081711 0.29006 0.081711 0.21859 0 0.40039-0.089881 0.1818-0.091923 0.33296-0.24717z"/>
   <path d="m21.87-0.27613h-0.20837q-0.06949 0-0.1001-0.030641-0.02848-0.030641-0.02848-0.10827 0-0.077624 0.02848-0.10827 0.03061-0.030642 0.1001-0.030642h0.36565q0.06949 0 0.09805 0.030642 0.03061 0.030642 0.03061 0.10827v0.24513q0.13481-0.2104 0.31459-0.31867 0.17975-0.11031 0.39015-0.11031 0.14096 0 0.25331 0.046983 0.11235 0.046983 0.18998 0.13278 0.07967 0.085795 0.12052 0.2104 0.04286 0.12256 0.04286 0.27577v0.98869h0.16751q0.06949 0 0.09806 0.030642 0.03061 0.030642 0.03061 0.10827 0 0.077625-0.03061 0.10826-0.02856 0.030642-0.09806 0.030642h-0.66184q-0.06949 0-0.1001-0.030642-0.02857-0.030642-0.02857-0.10826 0-0.077625 0.02857-0.10827 0.03061-0.030642 0.1001-0.030642h0.18794v-0.95805q0-0.087838-0.02051-0.15933-0.02051-0.073538-0.06122-0.12461-0.04086-0.053111-0.1042-0.08171-0.06122-0.028598-0.14503-0.028598-0.13072 0-0.24921 0.057197-0.11846 0.057197-0.20834 0.15933-0.0899 0.10214-0.14301 0.24309-0.0531 0.14095-0.0531 0.30845v0.58423h0.18795q0.06949 0 0.09805 0.030642 0.03061 0.030642 0.03061 0.10827 0 0.077625-0.03061 0.10826-0.02856 0.030642-0.09805 0.030642h-0.66184q-0.06949 0-0.1001-0.030642-0.02848-0.030642-0.02848-0.10826 0-0.077625 0.02848-0.10827 0.03061-0.030642 0.1001-0.030642h0.16751z"/>
   <path d="m26.148 1.0557q0.06949 0 0.09805 0.030642 0.03061 0.030642 0.03061 0.10827 0 0.077625-0.03061 0.10826-0.02848 0.030642-0.09805 0.030642h-0.3248q-0.06949 0-0.1001-0.030642-0.02859-0.030642-0.02859-0.10826v-0.16342q-0.12664 0.16546-0.2962 0.25739-0.1675 0.089882-0.37178 0.089882-0.18998 0-0.35134-0.063335-0.16139-0.06536-0.27988-0.18589-0.11642-0.12052-0.18383-0.29416-0.06738-0.17363-0.06738-0.39425 0-0.22062 0.06735-0.39425t0.18383-0.29416q0.11849-0.12052 0.27987-0.18385 0.16136-0.065368 0.35134-0.065368 0.20428 0 0.36362 0.083753 0.16137 0.08171 0.28393 0.23492v-0.89063h-0.41264q-0.06949 0-0.10008-0.030642-0.02859-0.030642-0.02859-0.10827 0-0.077625 0.02859-0.10826 0.03061-0.030642 0.10008-0.030642h0.59036q0.06949 0 0.09805 0.030642 0.03061 0.030642 0.03061 0.10826v2.2634zm-0.47392-0.61487q0-0.15116-0.04696-0.26964-0.04696-0.11848-0.13073-0.19815-0.08375-0.08171-0.20019-0.12461-0.11439-0.042898-0.24921-0.042898-0.13891 0-0.24718 0.046983-0.10827 0.046983-0.1818 0.13278-0.07347 0.083753-0.11234 0.20019-0.03888 0.11644-0.03888 0.25534 0 0.13891 0.03888 0.25534 0.03888 0.11644 0.11234 0.20223 0.07347 0.083751 0.1818 0.13074 0.10827 0.046989 0.24718 0.046989 0.13482 0 0.24921-0.042888 0.11644-0.042888 0.20019-0.12257 0.08375-0.081709 0.13072-0.20019 0.04697-0.11848 0.04697-0.26965z"/>
   <path d="m27.014 0.46539q0.01623 0.30846 0.16954 0.4637 0.15524 0.15321 0.44123 0.15321 0.20632 0 0.40039-0.046989 0.19405-0.046989 0.33501-0.12869 0.06531-0.036764 0.10825-0.006124 0.04499 0.030642 0.07159 0.09601 0.02848 0.065357 0.01225 0.11848-0.01623 0.051061-0.08375 0.085795-0.07966 0.038816-0.17771 0.071506-0.09602 0.032693-0.20632 0.057188-0.10827 0.022469-0.22471 0.034725-0.11643 0.014296-0.23492 0.014296-0.22469 0-0.39832-0.067406-0.17366-0.069454-0.29215-0.1961-0.11847-0.12869-0.1818-0.3105-0.06122-0.18385-0.06122-0.41468 0-0.22266 0.0716-0.40446 0.07347-0.18385 0.20222-0.31254 0.12869-0.13074 0.30642-0.20019 0.17975-0.071496 0.39425-0.071496 0.22674 0 0.40037 0.071496 0.17364 0.069454 0.29212 0.19406 0.12052 0.12461 0.18588 0.2962 0.06546 0.17159 0.07763 0.37587 0 0.069454-0.03061 0.098052-0.02849 0.028597-0.09806 0.028597zm0.65163-0.76807q-0.25533 0-0.41876 0.12869-0.16138 0.12665-0.21244 0.35339h1.2481q-0.04288-0.23083-0.19407-0.35544-0.15117-0.12665-0.42285-0.12665z"/>
   <path d="m29.651-0.27613h-0.25943q-0.06949 0-0.1001-0.030641-0.02849-0.030641-0.02849-0.10827 0-0.077624 0.02849-0.10827 0.03061-0.030642 0.1001-0.030642h0.41672q0.06949 0 0.09805 0.030642 0.03061 0.030642 0.03061 0.10827v0.41263q0.0756-0.13686 0.1716-0.24717 0.09805-0.11031 0.20835-0.18793 0.11032-0.077624 0.22879-0.11848 0.11847-0.042898 0.23491-0.042898 0.15933 0 0.29825 0.08171 0.05925 0.034726 0.0756 0.085795 0.01623 0.051069-0.01225 0.12665-0.02857 0.073539-0.07347 0.10418-0.04286 0.030642-0.10212-0.004076-0.10215-0.055154-0.2145-0.055154-0.09193 0-0.18793 0.034727-0.09398 0.032683-0.18386 0.093966-0.08785 0.05924-0.16546 0.14503-0.0756 0.083753-0.13483 0.18589-0.05724 0.10214-0.08988 0.21857-0.03275 0.11644-0.03275 0.24104v0.39629h0.68842q0.06949 0 0.09805 0.030642 0.03061 0.030642 0.03061 0.10827 0 0.077624-0.03061 0.10826-0.02849 0.030642-0.09805 0.030642h-1.3155q-0.06949 0-0.1001-0.030642-0.02848-0.030642-0.02848-0.10826 0-0.077625 0.02848-0.10827 0.03061-0.030642 0.1001-0.030642h0.32072z"/>
   <path d="m32.319 1.0333q0-0.071504 0.02663-0.13278 0.0285-0.063335 0.0756-0.11031 0.04698-0.046989 0.10827-0.07353 0.06337-0.028592 0.13482-0.028592 0.07159 0 0.13279 0.028592 0.06337 0.02655 0.1103 0.07353 0.04697 0.046989 0.07347 0.11031 0.0285 0.061284 0.0285 0.13278 0 0.071508-0.0285 0.13482-0.02663 0.061284-0.07347 0.10826-0.04698 0.046989-0.1103 0.07353-0.06122 0.028591-0.13279 0.028591-0.07151 0-0.13482-0.028591-0.06122-0.02656-0.10827-0.07353-0.047-0.046989-0.0756-0.10826-0.02663-0.063334-0.02663-0.13482z"/>
   <path d="m34.331-1.0687h-0.20836q-0.06949 0-0.10009-0.030642-0.02856-0.030642-0.02856-0.10827 0-0.077625 0.02856-0.10826 0.03061-0.030642 0.10009-0.030642h0.38609q0.06949 0 0.09805 0.030642 0.03061 0.030642 0.03061 0.10826v0.94579q0.12255-0.15729 0.2819-0.24717 0.16137-0.089881 0.36564-0.089881 0.18998 0 0.35136 0.06741 0.16138 0.06741 0.27782 0.1961 0.11847 0.12665 0.18588 0.3105 0.06735 0.18385 0.06735 0.41468 0 0.23083-0.06735 0.41468-0.06735 0.18385-0.18588 0.31254-0.11644 0.12665-0.27782 0.19406-0.16138 0.067407-0.35136 0.067407-0.20427 0-0.37381-0.089881-0.16749-0.091922-0.29416-0.25738v0.16342q0 0.077625-0.03061 0.10826-0.02847 0.030642-0.09805 0.030642h-0.32479q-0.06949 0-0.1001-0.030642-0.02848-0.030642-0.02848-0.10826 0-0.077625 0.02848-0.10827 0.03061-0.030642 0.1001-0.030642h0.1675zm0.30642 1.4585q0 0.16342 0.04691 0.29007 0.04697 0.12665 0.13074 0.21653 0.08375 0.087839 0.19815 0.13482 0.11644 0.044938 0.25126 0.044938 0.13892 0 0.24718-0.051061 0.10825-0.051061 0.1818-0.14095 0.07347-0.091924 0.11235-0.21653 0.03888-0.12665 0.03888-0.27781 0-0.14912-0.03888-0.27577-0.03885-0.12665-0.11234-0.21653-0.0735-0.091924-0.18181-0.14299-0.10827-0.051069-0.24718-0.051069-0.13481 0-0.25126 0.046983-0.11439 0.04494-0.19815 0.13482-0.08375 0.087838-0.13074 0.21653-0.0469 0.12665-0.0469 0.28803z"/>
   <path d="m37.176-0.27613h-0.25942q-0.06949 0-0.10009-0.030641-0.02859-0.030641-0.02859-0.10827 0-0.077624 0.02859-0.10827 0.03061-0.030642 0.10009-0.030642h0.41672q0.06949 0 0.09805 0.030642 0.03061 0.030642 0.03061 0.10827v0.41263q0.0756-0.13686 0.17158-0.24717 0.09805-0.11031 0.20837-0.18793 0.1103-0.077624 0.22879-0.11848 0.11847-0.042898 0.23491-0.042898 0.15933 0 0.29824 0.08171 0.0593 0.034726 0.0756 0.085795 0.01623 0.051069-0.01225 0.12665-0.02852 0.073539-0.07347 0.10418-0.04286 0.030642-0.10214-0.004076-0.10213-0.055154-0.21448-0.055154-0.09192 0-0.18794 0.034727-0.09395 0.032684-0.18385 0.093966-0.08783 0.05924-0.16546 0.14503-0.0756 0.083753-0.13482 0.18589-0.05724 0.10214-0.08988 0.21857-0.03275 0.11644-0.03275 0.24104v0.39629h0.68841q0.06949 0 0.09806 0.030642 0.03061 0.030642 0.03061 0.10827 0 0.077624-0.03061 0.10826-0.02859 0.030642-0.09806 0.030642h-1.3155q-0.06949 0-0.1001-0.030642-0.02852-0.030642-0.02852-0.10826 0-0.077625 0.02852-0.10827 0.03061-0.030642 0.1001-0.030642h0.3207z"/>
   <path d="m39.556 0.46539q0.01623 0.30846 0.16955 0.4637 0.15526 0.15321 0.44123 0.15321 0.20632 0 0.40037-0.046989 0.19407-0.046989 0.33501-0.12869 0.06541-0.036764 0.10827-0.006124 0.04499 0.030642 0.07156 0.09601 0.02853 0.065357 0.01225 0.11848-0.01623 0.051061-0.08375 0.085795-0.07967 0.038816-0.17773 0.071506-0.096 0.032693-0.20632 0.057188-0.10825 0.022469-0.2247 0.034725-0.11644 0.014296-0.23491 0.014296-0.22471 0-0.39834-0.067406-0.17364-0.069456-0.29211-0.1961-0.11849-0.12869-0.1818-0.3105-0.06122-0.18385-0.06122-0.41468 0-0.22266 0.07151-0.40446 0.07347-0.18385 0.20224-0.31254 0.12869-0.13074 0.3064-0.20019 0.17977-0.071496 0.39425-0.071496 0.22676 0 0.40039 0.071496 0.17363 0.069454 0.2921 0.19406 0.12052 0.12461 0.1859 0.2962 0.06535 0.17159 0.07763 0.37587 0 0.069454-0.03061 0.098052-0.02861 0.028597-0.09806 0.028597zm0.65164-0.76807q-0.25536 0-0.41876 0.12869-0.16138 0.12665-0.21245 0.35339h1.2481q-0.04288-0.23083-0.19406-0.35544-0.15116-0.12665-0.42284-0.12665z"/>
   <path d="m42.065 0.46539q0.01623 0.30846 0.16956 0.4637 0.15524 0.15321 0.44123 0.15321 0.20632 0 0.40037-0.046989 0.19407-0.046989 0.33501-0.12869 0.06534-0.036764 0.10827-0.006124 0.04499 0.030642 0.07155 0.09601 0.02857 0.065357 0.01225 0.11848-0.01623 0.051061-0.08375 0.085795-0.07968 0.038816-0.17773 0.071506-0.096 0.032693-0.20632 0.057188-0.10826 0.022469-0.2247 0.034725-0.11644 0.014296-0.23491 0.014296-0.22471 0-0.39835-0.067406-0.17364-0.069454-0.29211-0.1961-0.11849-0.12869-0.1818-0.3105-0.06123-0.18385-0.06123-0.41468 0-0.22266 0.07158-0.40446 0.07347-0.18385 0.20223-0.31254 0.1287-0.13074 0.30641-0.20019 0.17976-0.071496 0.39425-0.071496 0.22674 0 0.40038 0.071496 0.17364 0.069454 0.29211 0.19406 0.12052 0.12461 0.1859 0.2962 0.06536 0.17159 0.07762 0.37587 0 0.069454-0.03061 0.098052-0.0285 0.028597-0.09805 0.028597zm0.65163-0.76807q-0.25534 0-0.41875 0.12869-0.16138 0.12665-0.21246 0.35339h1.2481q-0.04289-0.23083-0.19405-0.35544-0.15116-0.12665-0.42286-0.12665z"/>
   <path d="m44.447-0.27613h-0.20837q-0.06949 0-0.1001-0.030641-0.02848-0.030641-0.02848-0.10827 0-0.077624 0.02848-0.10827 0.03061-0.030642 0.1001-0.030642h0.36565q0.06949 0 0.09805 0.030642 0.03061 0.030642 0.03061 0.10827v0.24513q0.13482-0.2104 0.31459-0.31867 0.17976-0.11031 0.39016-0.11031 0.14096 0 0.2533 0.046983 0.11235 0.046983 0.18997 0.13278 0.07968 0.085795 0.12052 0.2104 0.04286 0.12256 0.04286 0.27577v0.98869h0.1675q0.06949 0 0.09805 0.030642 0.03061 0.030642 0.03061 0.10827 0 0.077625-0.03061 0.10826-0.02856 0.030642-0.09805 0.030642h-0.66185q-0.06949 0-0.1001-0.030642-0.02854-0.030642-0.02854-0.10826 0-0.077625 0.02854-0.10827 0.03061-0.030642 0.1001-0.030642h0.18794v-0.95805q0-0.087838-0.02051-0.15933-0.0205-0.073538-0.06122-0.12461-0.04082-0.053111-0.10419-0.08171-0.06122-0.028598-0.14504-0.028598-0.13073 0-0.24921 0.057197-0.11846 0.057197-0.20835 0.15933-0.08988 0.10214-0.143 0.24309-0.05311 0.14095-0.05311 0.30845v0.58423h0.18795q0.06949 0 0.09805 0.030642 0.03061 0.030642 0.03061 0.10827 0 0.077625-0.03061 0.10826-0.02852 0.030642-0.09805 0.030642h-0.66185q-0.06949 0-0.1001-0.030642-0.0285-0.030642-0.0285-0.10826 0-0.077625 0.0285-0.10827 0.03061-0.030642 0.10009-0.030642h0.1675z"/>
   <path d="m46.563 0.53893q0-0.30028 0.09397-0.55767 0.09397-0.25739 0.25943-0.44532 0.16751-0.18998 0.39425-0.2962 0.22879-0.10827 0.49842-0.10827 0.23696 0 0.42899 0.083753 0.19405 0.08171 0.32888 0.23083 0.13686 0.14708 0.2104 0.35339 0.07347 0.20427 0.07347 0.4494 0 0.17976-0.04286 0.32888-0.04082 0.14708-0.11644 0.2533-0.07347 0.10622-0.17975 0.16546-0.10622 0.057188-0.23491 0.057188-0.13483 0-0.22879-0.067406-0.09397-0.067406-0.14096-0.1961-0.04693 0.061284-0.09396 0.11235-0.04697 0.049036-0.09805 0.085795-0.05112 0.034722-0.10827 0.055162-0.05724 0.020418-0.12664 0.020418-0.0756 0-0.14096-0.030642-0.06532-0.030642-0.1144-0.08988-0.04898-0.059234-0.07762-0.14299-0.02663-0.085795-0.02663-0.1961 0-0.091924 0.02237-0.19202 0.02237-0.10009 0.06337-0.1961 0.04079-0.098052 0.1001-0.18589 0.05931-0.087838 0.13073-0.15321 0.07159-0.06741 0.15525-0.10622 0.08375-0.040855 0.17568-0.040855 0.09805 0 0.15933 0.057197 0.06337 0.055154 0.10213 0.14708l0.06337-0.12869q0.01011-0.02247 0.04699-0.02247 0.03674 0 0.07347 0.014299 0.03674 0.014299 0.06122 0.038812 0.02663 0.024514 0.01836 0.055154l-0.15708 0.61691q-0.03461 0.13278 0.0064 0.2104 0.04085 0.077625 0.13279 0.077625 0.07762 0 0.1389-0.038815 0.06122-0.040866 0.10214-0.11235 0.04286-0.07353 0.06536-0.17363 0.02238-0.10009 0.02238-0.22266 0-0.20019-0.05724-0.35952-0.0551-0.16138-0.15933-0.27373-0.10418-0.11235-0.2533-0.17159-0.14912-0.061281-0.33501-0.061281-0.21245 0-0.39221 0.089881-0.17975 0.087838-0.31254 0.24309-0.13075 0.15525-0.20632 0.36769-0.07347 0.2104-0.07347 0.45553 0 0.1961 0.05112 0.35544 0.05309 0.15729 0.15321 0.26964 0.1001 0.11031 0.24718 0.16955 0.14912 0.061284 0.33909 0.061284 0.14708 0 0.2819-0.022469 0.13482-0.020419 0.239-0.053111 0.07347-0.022469 0.10622 0.087837 0.01623 0.055162 0.0043 0.085795-0.01011 0.032693-0.04286 0.046989-0.10826 0.046989-0.26146 0.075581-0.15321 0.030642-0.32276 0.030642-0.24513 0-0.43919-0.077624-0.1943-0.075584-0.32912-0.22062-0.13486-0.14299-0.20634-0.34727-0.071516-0.20427-0.071516-0.46166zm0.83345 0.061284q0 0.10009 0.03674 0.14503 0.03888 0.044938 0.09805 0.044938 0.07966 0 0.14911-0.055162 0.06949-0.057194 0.12052-0.14503 0.0531-0.087839 0.08375-0.19406 0.03061-0.10827 0.03061-0.20836 0-0.096009-0.04286-0.14708-0.0408-0.051069-0.11235-0.051069-0.0551 0-0.12052 0.053111-0.06337 0.053111-0.11849 0.13891-0.0531 0.085795-0.08988 0.1961-0.03465 0.10827-0.03465 0.22266z"/>
   <path d="m50.759 0.33874q0-0.15116-0.047-0.26964-0.04697-0.11848-0.13073-0.19815-0.08375-0.08171-0.20018-0.12461-0.1144-0.042898-0.24922-0.042898-0.13891 0-0.24718 0.046983-0.10827 0.046983-0.1818 0.13278-0.07347 0.083753-0.11235 0.20019-0.03888 0.11644-0.03888 0.25534 0 0.13891 0.03888 0.25534 0.03888 0.11644 0.11235 0.20223 0.07347 0.083753 0.1818 0.13074 0.10827 0.046989 0.24718 0.046989 0.13482 0 0.24922-0.042888 0.11643-0.042888 0.20018-0.12256 0.08375-0.081711 0.13074-0.20019 0.04703-0.11848 0.04703-0.26964zm-1.1378 1.4258q0.14094 0.059234 0.2962 0.085795 0.15524 0.028591 0.30437 0.028591 0.13686 0 0.23696-0.036764 0.10213-0.034725 0.16751-0.10214 0.06735-0.065356 0.10008-0.15729 0.03275-0.091923 0.03275-0.20427v-0.4208q-0.12257 0.1532-0.28395 0.23696-0.15933 0.081709-0.3636 0.081709-0.18998 0-0.35135-0.063334-0.16137-0.065357-0.27986-0.18589-0.11643-0.12052-0.18384-0.29416-0.06735-0.17363-0.06735-0.39425 0-0.22062 0.06735-0.39425 0.06735-0.17363 0.18384-0.29416 0.11849-0.12052 0.27986-0.18385 0.16138-0.065368 0.35135-0.065368 0.20427 0 0.37178 0.091924 0.16955 0.089881 0.2962 0.25534v-0.16342q0-0.077624 0.02853-0.10827 0.03061-0.030642 0.10009-0.030642h0.3248q0.06949 0 0.09805 0.030642 0.03061 0.030642 0.03061 0.10827 0 0.077624-0.03061 0.10827-0.02852 0.030641-0.09805 0.030641h-0.16749v1.6812q0 0.18385-0.05724 0.32684-0.0551 0.14503-0.16341 0.24309-0.10827 0.10009-0.26556 0.15321-0.1573 0.053111-0.35748 0.053111-0.17772 0-0.35748-0.030642-0.17976-0.030642-0.34114-0.091923-0.0551-0.022469-0.07347-0.067407-0.01623-0.044938 0.01011-0.12256 0.02663-0.077625 0.06735-0.10214 0.04286-0.02452 0.09397-0.00214z"/>
   <path d="m52.031-0.2128q0.08988-0.19815 0.21244-0.29211 0.12256-0.093966 0.26351-0.093966 0.06735 0 0.12665 0.02247 0.06122 0.022469 0.11236 0.069454 0.05112 0.044941 0.08783 0.11439 0.03888 0.069453 0.05724 0.16342 0.09193-0.18793 0.21042-0.27781 0.11847-0.091924 0.25943-0.091924 0.08783 0 0.16341 0.032684 0.07763 0.032684 0.13482 0.10009 0.05724 0.06741 0.08988 0.17159 0.03469 0.10214 0.03469 0.24309v1.1072h0.12665q0.06949 0 0.09805 0.030642 0.03061 0.030642 0.03061 0.10827 0 0.077625-0.03061 0.10826-0.02852 0.030642-0.09805 0.030642h-0.30436q-0.06949 0-0.10009-0.030642-0.0285-0.030642-0.0285-0.10826v-1.2093q0-0.13686-0.04499-0.20836-0.04499-0.073539-0.14911-0.073539-0.07347 0-0.13891 0.051069-0.06337 0.051069-0.11235 0.14299-0.04697 0.091923-0.0756 0.22062-0.02855 0.12665-0.02855 0.2819v0.65572h0.11643q0.06949 0 0.09805 0.030642 0.03061 0.030642 0.03061 0.10827 0 0.077625-0.03061 0.10826-0.02851 0.030642-0.09805 0.030642h-0.29415q-0.06949 0-0.1001-0.030642-0.02849-0.030642-0.02849-0.10826v-1.2093q0-0.13686-0.04499-0.20836-0.04499-0.073539-0.14913-0.073539-0.07347 0-0.1389 0.051069-0.06337 0.051069-0.11236 0.14299-0.04697 0.091923-0.0756 0.22062-0.02849 0.12665-0.02849 0.2819v0.65572h0.10622q0.06949 0 0.09805 0.030642 0.03061 0.030642 0.03061 0.10827 0 0.077625-0.03061 0.10826-0.0285 0.030642-0.09805 0.030642h-0.58019q-0.06949 0-0.10009-0.030642-0.02856-0.030642-0.02856-0.10826 0-0.077625 0.02856-0.10827 0.03061-0.030642 0.10008-0.030642h0.16748v-1.3319h-0.1675q-0.06949 0-0.10009-0.030641-0.02855-0.030641-0.02855-0.10827 0-0.077624 0.02855-0.10827 0.03061-0.030642 0.10009-0.030642h0.30437q0.06949 0 0.09806 0.030642 0.03061 0.030642 0.03061 0.10827z"/>
   <path d="m56.223 1.0557q0.06949 0 0.09805 0.030642 0.03061 0.030642 0.03061 0.10827 0 0.077625-0.03061 0.10826-0.02848 0.030642-0.09805 0.030642h-0.13074q-0.06337 0-0.12052-0.014295-0.05724-0.016347-0.10417-0.049035-0.04499-0.032693-0.07968-0.081709-0.03275-0.049031-0.04699-0.11644-0.16136 0.14095-0.35543 0.2247-0.19405 0.081711-0.4208 0.081711-0.15321 0-0.2819-0.040866-0.1287-0.038812-0.22267-0.11439-0.09397-0.077624-0.14708-0.18793-0.05112-0.11031-0.05112-0.2533 0-0.17159 0.06542-0.29211 0.06735-0.12052 0.17977-0.19406 0.1144-0.075582 0.26351-0.11031 0.15116-0.034726 0.31867-0.034726 0.16546 0 0.32071 0.026556 0.15525 0.026556 0.30028 0.077624v-0.17362q0-0.19815-0.09601-0.29007-0.09397-0.093966-0.32479-0.093966-0.16546 0-0.33297 0.04494-0.16547 0.042898-0.29417 0.13482-0.04692 0.034726-0.096 0.024514-0.04898-0.010214-0.09397-0.073538-0.04499-0.063325-0.03674-0.11235 0.0101-0.051069 0.05724-0.085795 0.07966-0.05924 0.17568-0.10214 0.09601-0.044941 0.19813-0.071496 0.10419-0.028597 0.21042-0.040854 0.10826-0.014299 0.21244-0.014299 0.36565 0 0.54541 0.17159 0.1818 0.17159 0.1818 0.50864v0.81301q0 0.16138 0.13482 0.16138zm-0.51274-0.52499q-0.14094-0.046987-0.30028-0.069454-0.15933-0.02247-0.31867-0.02247-0.11032 0-0.20427 0.018387-0.09193 0.01839-0.15933 0.059237-0.06735 0.038815-0.10622 0.10418-0.03674 0.063335-0.03674 0.15525 0 0.14912 0.10213 0.23287 0.10418 0.081711 0.29007 0.081711 0.21857 0 0.40037-0.089881 0.1818-0.091923 0.33296-0.24717z"/>
   <path d="m57.645-0.27613h-0.51682q-0.06949 0-0.1001-0.030641-0.02851-0.030641-0.02851-0.10827 0-0.077624 0.02851-0.10827 0.03061-0.030642 0.1001-0.030642h0.69453q0.06949 0 0.09805 0.030642 0.03061 0.030642 0.03061 0.10827v1.4708h0.65571q0.06949 0 0.09805 0.030642 0.03061 0.030642 0.03061 0.10827 0 0.077625-0.03061 0.10826-0.02849 0.030642-0.09805 0.030642h-1.6015q-0.06949 0-0.1001-0.030642-0.0285-0.030642-0.0285-0.10826 0-0.077625 0.0285-0.10827 0.03061-0.030642 0.1001-0.030642h0.63938zm0.30641-0.77624q0 0.071496-0.03887 0.10214-0.03888 0.030642-0.15525 0.030642-0.11644 0-0.15524-0.030642-0.03887-0.030642-0.03887-0.10214v-0.26556q0-0.071506 0.03887-0.10214 0.03888-0.030642 0.15524-0.030642 0.11644 0 0.15525 0.030642 0.03887 0.030642 0.03887 0.10214z"/>
   <path d="m60.133-1.0687h-0.55766q-0.06949 0-0.1001-0.030642-0.02848-0.030642-0.02848-0.10827 0-0.077625 0.02848-0.10826 0.03061-0.030642 0.1001-0.030642h0.73538q0.06949 0 0.09805 0.030642 0.03061 0.030642 0.03061 0.10826v2.2634h0.65572q0.06949 0 0.09805 0.030642 0.03061 0.030642 0.03061 0.10827 0 0.077625-0.03061 0.10826-0.02849 0.030642-0.09805 0.030642h-1.6015q-0.06949 0-0.1001-0.030642-0.02852-0.030642-0.02852-0.10826 0-0.077625 0.02852-0.10827 0.03061-0.030642 0.1001-0.030642h0.63938z"/>
   <path d="m62.421 1.0333q0-0.071504 0.02663-0.13278 0.0285-0.063335 0.0756-0.11031 0.04697-0.046989 0.10827-0.07353 0.06337-0.028592 0.13482-0.028592 0.07153 0 0.13277 0.028592 0.06337 0.02655 0.11032 0.07353 0.04702 0.046989 0.07347 0.11031 0.02855 0.061284 0.02855 0.13278 0 0.071508-0.02855 0.13482-0.02663 0.061284-0.07347 0.10826-0.04696 0.046989-0.11032 0.07353-0.06122 0.028591-0.13277 0.028591-0.07159 0-0.13482-0.028591-0.06122-0.02656-0.10827-0.07353-0.04697-0.046989-0.0756-0.10826-0.02663-0.063334-0.02663-0.13482z"/>
   <path d="m65.857 0.12629q0-0.091924-0.03674-0.16955-0.03674-0.077624-0.11031-0.13278-0.07158-0.057197-0.17772-0.087838-0.10622-0.032684-0.24717-0.032684-0.14912 0-0.27577 0.051069-0.12461 0.051069-0.21449 0.14299-0.08988 0.091924-0.14095 0.21857-0.05112 0.12461-0.05112 0.27373 0 0.14912 0.04694 0.27577 0.047 0.12461 0.13278 0.21653 0.08783 0.091923 0.2104 0.14299 0.12256 0.051061 0.27168 0.051061 0.18794 0 0.3636-0.057195 0.17568-0.057194 0.32276-0.16955 0.05308-0.040866 0.1001-0.030642 0.04698 0.010224 0.08988 0.08171 0.03464 0.055162 0.02851 0.11439-0.0043 0.059234-0.06336 0.10214-0.16547 0.12257-0.38608 0.19202-0.22061 0.069458-0.45553 0.069458-0.2247 0-0.4065-0.07353-0.1817-0.075584-0.31039-0.20836-0.1287-0.13278-0.19815-0.31254-0.06949-0.1818-0.06949-0.39425 0-0.21245 0.07152-0.39221 0.07158-0.1818 0.2002-0.31458 0.13074-0.13278 0.31049-0.20632 0.1818-0.075582 0.40242-0.075582 0.1859 0 0.33706 0.06741 0.15116 0.065368 0.25534 0.18793v-0.12256q0-0.071496 0.03275-0.10214 0.03463-0.030642 0.12052-0.030642 0.0858 0 0.11848 0.030642 0.03466 0.030642 0.03466 0.10214v0.5924q0 0.071496-0.03466 0.10214-0.03275 0.030642-0.11848 0.030642-0.0858 0-0.12052-0.030642-0.03275-0.030642-0.03275-0.10214z"/>
   <path d="m66.774 0.38981q0-0.21653 0.0756-0.39629 0.07762-0.1818 0.21245-0.31254 0.13482-0.13278 0.31867-0.20632 0.18588-0.073538 0.40242-0.073538 0.21652 0 0.40037 0.073538 0.18589 0.073538 0.32071 0.20632 0.13482 0.13074 0.2104 0.31254 0.07763 0.17976 0.07763 0.39629 0 0.21653-0.07763 0.39834-0.0756 0.17976-0.2104 0.31254-0.13482 0.13074-0.32071 0.20428-0.18385 0.07353-0.40037 0.07353-0.21654 0-0.40242-0.07353-0.18386-0.07354-0.31868-0.20428-0.13483-0.13278-0.21244-0.31254-0.07558-0.1818-0.07558-0.39834zm0.32275 0q0 0.14912 0.04898 0.27577 0.05112 0.12461 0.14094 0.21653 0.08988 0.091923 0.21654 0.14299 0.12665 0.051061 0.27986 0.051061 0.1532 0 0.27985-0.051061 0.12664-0.05106 0.21653-0.14299 0.08989-0.091924 0.13891-0.21653 0.05112-0.12665 0.05112-0.27577 0-0.14912-0.05112-0.27373-0.04898-0.12665-0.1389-0.21857-0.08988-0.091924-0.21652-0.14299-0.12665-0.051069-0.27985-0.051069-0.15321 0-0.27986 0.051069-0.12666 0.051069-0.21654 0.14299-0.08988 0.091924-0.14094 0.21857-0.04898 0.12461-0.04898 0.27373z"/>
   <path d="m69.591-0.2128q0.08988-0.19815 0.21245-0.29211 0.12256-0.093966 0.26351-0.093966 0.06735 0 0.12666 0.02247 0.06122 0.022469 0.11235 0.069454 0.05112 0.044941 0.08783 0.11439 0.03887 0.069453 0.05724 0.16342 0.09193-0.18793 0.2104-0.27781 0.11847-0.091924 0.25943-0.091924 0.08783 0 0.16341 0.032684 0.07763 0.032684 0.13483 0.10009 0.05724 0.06741 0.08988 0.17159 0.03464 0.10214 0.03464 0.24309v1.1072h0.12666q0.06949 0 0.09805 0.030642 0.03061 0.030642 0.03061 0.10827 0 0.077625-0.03061 0.10826-0.02855 0.030642-0.09805 0.030642h-0.30436q-0.06949 0-0.1001-0.030642-0.02853-0.030642-0.02853-0.10826v-1.2093q0-0.13686-0.04499-0.20836-0.04499-0.073539-0.14911-0.073539-0.07347 0-0.13891 0.051069-0.06337 0.051069-0.11235 0.14299-0.047 0.091923-0.0756 0.22062-0.02852 0.12665-0.02852 0.2819v0.65572h0.11643q0.06949 0 0.09806 0.030642 0.03061 0.030642 0.03061 0.10827 0 0.077625-0.03061 0.10826-0.02856 0.030642-0.09806 0.030642h-0.29415q-0.06949 0-0.1001-0.030642-0.02848-0.030642-0.02848-0.10826v-1.2093q0-0.13686-0.04499-0.20836-0.04499-0.073539-0.14912-0.073539-0.07347 0-0.1389 0.051069-0.06337 0.051069-0.11235 0.14299-0.04693 0.091923-0.0756 0.22062-0.02855 0.12665-0.02855 0.2819v0.65572h0.10622q0.06949 0 0.09805 0.030642 0.03061 0.030642 0.03061 0.10827 0 0.077625-0.03061 0.10826-0.0285 0.030642-0.09805 0.030642h-0.5802q-0.06949 0-0.1001-0.030642-0.02851-0.030642-0.02851-0.10826 0-0.077625 0.02851-0.10827 0.0306-0.030642 0.10009-0.030642h0.1675v-1.3319h-0.16754q-0.06949 0-0.1001-0.030641-0.02851-0.030641-0.02851-0.10827 0-0.077624 0.02851-0.10827 0.03061-0.030642 0.1001-0.030642h0.30437q0.06949 0 0.09805 0.030642 0.03061 0.030642 0.03061 0.10827z"/>
  </g>
 </g>
</svg>
