<?xml version="1.0" encoding="UTF-8" standalone="no"?>
<!-- Created with Inkscape (http://www.inkscape.org/) -->

<svg
   width="237"
   height="14"
   viewBox="0 0 62.706249 3.7041666"
   version="1.1"
   id="svg854"
   inkscape:version="1.1 (c68e22c387, 2021-05-23)"
   sodipodi:docname="email-c4c4c4.svg"
   xmlns:inkscape="http://www.inkscape.org/namespaces/inkscape"
   xmlns:sodipodi="http://sodipodi.sourceforge.net/DTD/sodipodi-0.dtd"
   xmlns="http://www.w3.org/2000/svg"
   xmlns:svg="http://www.w3.org/2000/svg">
  <sodipodi:namedview
     id="namedview856"
     pagecolor="#ffffff"
     bordercolor="#666666"
     borderopacity="1.0"
     inkscape:pageshadow="2"
     inkscape:pageopacity="0.0"
     inkscape:pagecheckerboard="0"
     inkscape:document-units="mm"
     showgrid="false"
     units="px"
     inkscape:zoom="1"
     inkscape:cx="140"
     inkscape:cy="73.5"
     inkscape:window-width="1777"
     inkscape:window-height="1091"
     inkscape:window-x="2295"
     inkscape:window-y="2572"
     inkscape:window-maximized="0"
     inkscape:current-layer="layer1"
     fit-margin-top="0"
     fit-margin-left="0"
     fit-margin-right="0"
     fit-margin-bottom="0" />
  <defs
     id="defs851" />
  <g
     inkscape:label="Layer 1"
     inkscape:groupmode="layer"
     id="layer1"
     transform="translate(-9.0007102,1.4867899)">
    <g
       id="g10522"
       transform="matrix(0.77616171,0,0,0.77616171,2.2786419,-0.26392589)">
      <path
         d="m 11.326841,1.7002495 q 0.08953,0 0.126325,0.039479 0.03944,0.039479 0.03944,0.1394899 0,0.1000109 -0.03944,0.1394871 -0.03671,0.039479 -0.126325,0.039479 h -0.168447 q -0.08164,0 -0.155274,-0.018418 -0.07375,-0.021061 -0.134219,-0.063176 -0.05797,-0.042121 -0.102655,-0.1052731 -0.0422,-0.063171 -0.06055,-0.1500166 Q 10.497801,1.9029005 10.247761,2.0108043 9.9977512,2.11608 9.705603,2.11608 9.5082149,2.11608 9.3424072,2.063429 9.1766068,2.0134396 9.0555397,1.916059 8.9344756,1.8160482 8.8660477,1.6739287 8.8002502,1.5318097 8.8002502,1.3475791 q 0,-0.221075 0.084204,-0.37635611 Q 8.9713032,0.8159441 9.116059,0.72119731 9.2634428,0.62381841 9.4555689,0.5790772 9.6503261,0.5343365 9.8661367,0.5343365 q 0.2131803,0 0.4132173,0.034214 0.200015,0.034214 0.386865,0.10001054 v -0.2237075 q 0,-0.25529005 -0.123683,-0.37372349 -0.12108,-0.12106539 -0.418456,-0.12106539 -0.2132002,0 -0.4290132,0.05790088 -0.2131713,0.05526901 -0.3789789,0.17370244 -0.060539,0.0447412 -0.1236966,0.0315826 -0.06317,-0.0131596 -0.1210657,-0.0947461 -0.057898,-0.08158765 -0.047367,-0.14475208 0.013171,-0.06579634 0.073679,-0.11053789 0.1026436,-0.0763237 0.2263403,-0.13159265 0.1236979,-0.0579013 0.2552891,-0.0921153 0.1342248,-0.0368446 0.2710823,-0.0526363 0.1394914,-0.0184223 0.2737197,-0.0184223 0.471101,0 0.702696,0.22107585 0.234233,0.22107585 0.234233,0.65533198 V 1.492332 q 0,0.2079178 0.173693,0.2079178 z M 10.666227,1.0238605 Q 10.484646,0.9633228 10.279362,0.9343765 10.074078,0.9054266 9.8687897,0.9054266 q -0.1421204,0 -0.2631877,0.0236901 -0.1184333,0.0236934 -0.205284,0.076321 -0.086846,0.050009 -0.1368558,0.1342247 -0.047367,0.0816 -0.047367,0.2000221 0,0.1921259 0.1315937,0.3000301 0.134225,0.1052753 0.3737228,0.1052753 0.2815963,0 0.5158293,-0.1158023 0.234233,-0.1184334 0.428986,-0.3184548 z"
         style="font-size:5.64444px;line-height:1.25;font-family:'Courier Prime';-inkscape-font-specification:'Courier Prime';fill:#c4c4c4;stroke-width:0.252651"
         id="path10281" />
      <path
         d="m 13.132302,-1.0368818 h -0.718508 q -0.08953,0 -0.128963,-0.039479 -0.03674,-0.039479 -0.03674,-0.1394895 0,-0.1000111 0.03674,-0.1394872 0.03944,-0.039479 0.128963,-0.039479 h 0.947464 q 0.08953,0 0.126326,0.039479 0.03944,0.039479 0.03944,0.1394872 V 1.700247 h 0.844833 q 0.08953,0 0.126325,0.039479 0.03944,0.039479 0.03944,0.1394898 0,0.100011 -0.03944,0.1394871 -0.03668,0.039479 -0.126325,0.039479 H 12.30849 q -0.08953,0 -0.128966,-0.039479 -0.03672,-0.039479 -0.03672,-0.1394871 0,-0.100011 0.03672,-0.1394898 0.03944,-0.039479 0.128966,-0.039479 h 0.823775 z"
         style="font-size:5.64444px;line-height:1.25;font-family:'Courier Prime';-inkscape-font-specification:'Courier Prime';fill:#c4c4c4;stroke-width:0.252651"
         id="path10283" />
      <path
         d="m 15.708867,0.93964183 q 0.02091,0.39741117 0.218451,0.59743087 0.200034,0.1973907 0.568483,0.1973907 0.265821,0 0.515833,-0.06054 0.250043,-0.06054 0.431628,-0.165807 0.08431,-0.047367 0.139495,-0.00789 0.05797,0.039479 0.09217,0.1236979 0.03679,0.084205 0.01578,0.1526479 -0.02091,0.065786 -0.107908,0.1105376 -0.102658,0.05001 -0.228984,0.092128 -0.123685,0.042121 -0.26582,0.07368 -0.139466,0.028949 -0.289493,0.044739 -0.150026,0.018419 -0.302659,0.018419 -0.289503,0 -0.513226,-0.086846 Q 15.758898,1.9397428 15.606263,1.7765719 15.453599,1.6107637 15.37203,1.3765281 15.29315,1.1396612 15.29315,0.8422624 q 0,-0.28687225 0.09214,-0.52110738 0.09466,-0.23686688 0.260572,-0.40267386 0.165805,-0.16843865 0.394759,-0.2579217 0.231622,-0.0921153 0.507958,-0.0921153 0.292148,0 0.515851,0.0921153 0.223703,0.0894842 0.376336,0.2500262 0.155289,0.16054313 0.239515,0.38161895 0.08423,0.22107583 0.100016,0.48426138 0,0.0894844 -0.03944,0.12632901 -0.03678,0.0368444 -0.126328,0.0368444 z m 0.839582,-0.98957721 q -0.329001,0 -0.539534,0.16580693 -0.207924,0.16317498 -0.273712,0.4553109 h 1.608041 Q 17.288003,0.27378284 17.093233,0.11323973 16.898478,-0.04993538 16.548449,-0.04993538 Z"
         style="font-size:5.64444px;line-height:1.25;font-family:'Courier Prime';-inkscape-font-specification:'Courier Prime';fill:#c4c4c4;stroke-width:0.252651"
         id="path10285" />
      <path
         d="m 18.622346,1.7002495 0.855335,-0.89746374 -0.773765,-0.81850695 h -0.186844 q -0.08953,0 -0.128959,-0.03947788 -0.03684,-0.03947782 -0.03684,-0.13948826 0,-0.10001055 0.03684,-0.13948829 0.03944,-0.039479 0.128959,-0.039479 h 0.905349 q 0.08953,0 0.126327,0.039479 0.03944,0.039479 0.03944,0.13948829 0,0.10001044 -0.03944,0.13948826 -0.03673,0.03947788 -0.126327,0.03947788 h -0.20003 l 0.557959,0.60532662 0.560584,-0.60532662 h -0.144746 q -0.08953,0 -0.128966,-0.03947788 -0.03669,-0.03947782 -0.03669,-0.13948826 0,-0.10001055 0.03669,-0.13948829 0.03944,-0.039479 0.128966,-0.039479 h 0.800076 q 0.08953,0 0.126327,0.039479 0.03944,0.039479 0.03944,0.13948829 0,0.10001044 -0.03944,0.13948826 -0.03673,0.03947788 -0.126327,0.03947788 h -0.171058 l -0.781656,0.8237706 0.844807,0.89220009 h 0.134244 q 0.08953,0 0.126326,0.039479 0.03944,0.039479 0.03944,0.1394899 0,0.1000109 -0.03944,0.1394871 -0.03682,0.039479 -0.126326,0.039479 h -0.90537 q -0.08953,0 -0.128967,-0.039479 -0.03671,-0.039479 -0.03671,-0.1394871 0,-0.100011 0.03671,-0.1394899 0.03944,-0.039479 0.128967,-0.039479 h 0.252652 L 19.73825,1.0212291 19.109231,1.7002495 h 0.207923 q 0.08953,0 0.126327,0.039479 0.03944,0.039479 0.03944,0.1394899 0,0.1000109 -0.03944,0.1394871 -0.03669,0.039479 -0.126327,0.039479 H 18.49074 q -0.08953,0 -0.128967,-0.039479 -0.03669,-0.039479 -0.03669,-0.1394871 0,-0.100011 0.03669,-0.1394899 0.03944,-0.039479 0.128967,-0.039479 z"
         style="font-size:5.64444px;line-height:1.25;font-family:'Courier Prime';-inkscape-font-specification:'Courier Prime';fill:#c4c4c4;stroke-width:0.252651"
         id="path10287" />
      <path
         d="m 24.254512,1.7002495 q 0.08953,0 0.126338,0.039479 0.03944,0.039479 0.03944,0.1394899 0,0.1000109 -0.03944,0.1394871 -0.03684,0.039479 -0.126338,0.039479 h -0.168433 q -0.08164,0 -0.155274,-0.018418 -0.07375,-0.021061 -0.134246,-0.063176 -0.05797,-0.042121 -0.102628,-0.1052731 -0.0422,-0.063171 -0.06052,-0.1500166 -0.207925,0.1815997 -0.457935,0.2895035 -0.250041,0.1052757 -0.542175,0.1052757 -0.197391,0 -0.363196,-0.052651 -0.1658,-0.050003 -0.286871,-0.147382 -0.121055,-0.1000108 -0.189483,-0.24213 -0.06586,-0.1421195 -0.06586,-0.3263499 0,-0.2210751 0.0842,-0.37635605 0.08677,-0.15527897 0.231593,-0.25002575 0.147386,-0.0973785 0.339528,-0.14212014 0.194754,-0.0447405 0.410568,-0.0447405 0.213173,0 0.413198,0.034214 0.200012,0.034214 0.386877,0.10001055 V 0.44485166 q 0,-0.25529004 -0.123684,-0.37372351 -0.121079,-0.12106528 -0.418483,-0.12106528 -0.213177,0 -0.428991,0.05790077 -0.213184,0.05526959 -0.378989,0.17370301 -0.06052,0.0447405 -0.123687,0.0315833 -0.06311,-0.0131595 -0.121076,-0.094746 -0.05797,-0.08158768 -0.04733,-0.14475209 0.01302,-0.06579629 0.07375,-0.11053787 0.102656,-0.0763237 0.226341,-0.13159268 0.123691,-0.0579013 0.255293,-0.0921153 0.134218,-0.0368446 0.271074,-0.0526363 0.139492,-0.0184223 0.273712,-0.0184223 0.471103,0 0.702727,0.22107586 0.234233,0.22107585 0.234233,0.65533199 V 1.4923314 q 0,0.2079178 0.173693,0.2079178 z m -0.660599,-0.676389 q -0.181587,-0.0605377 -0.386886,-0.089484 -0.20529,-0.0289497 -0.410573,-0.0289497 -0.142112,0 -0.263187,0.0236901 -0.118434,0.0236933 -0.205284,0.0763209 -0.08677,0.050009 -0.136855,0.1342247 -0.04733,0.0816 -0.04733,0.200022 0,0.1921262 0.131607,0.3000303 0.134215,0.1052752 0.373704,0.1052752 0.281625,0 0.515858,-0.1158024 Q 23.3992,1.5107543 23.593954,1.310733 Z"
         style="font-size:5.64444px;line-height:1.25;font-family:'Courier Prime';-inkscape-font-specification:'Courier Prime';fill:#c4c4c4;stroke-width:0.252651"
         id="path10289" />
      <path
         d="m 25.241464,-0.01572119 h -0.268463 q -0.08953,0 -0.128967,-0.03947788 -0.0367,-0.03947782 -0.0367,-0.13948826 0,-0.10001055 0.0367,-0.13948829 0.03944,-0.039479 0.128967,-0.039479 h 0.471106 q 0.08953,0 0.126326,0.039479 0.03944,0.039479 0.03944,0.13948829 v 0.31582259 q 0.173693,-0.27108103 0.40532,-0.41056936 0.231592,-0.1421203 0.502663,-0.1421203 0.181615,0 0.32636,0.0605321 0.144745,0.0605321 0.244763,0.17107064 0.102649,0.11053792 0.155276,0.27108101 0.05522,0.15791128 0.05522,0.35530046 V 1.7002495 h 0.215815 q 0.08953,0 0.126333,0.039479 0.03944,0.039479 0.03944,0.1394899 0,0.1000109 -0.03944,0.1394871 -0.03679,0.039479 -0.126333,0.039479 h -0.852707 q -0.08953,0 -0.128961,-0.039479 -0.03681,-0.039479 -0.03681,-0.1394871 0,-0.100011 0.03681,-0.1394899 0.03944,-0.039479 0.128963,-0.039479 h 0.242141 V 0.46590836 q 0,-0.11316981 -0.02642,-0.20528484 -0.02642,-0.094746 -0.07888,-0.16054314 -0.05264,-0.06842811 -0.134245,-0.1052742 -0.07888,-0.03684592 -0.186861,-0.03684592 -0.168417,0 -0.321083,0.07369191 -0.152624,0.07369192 -0.268421,0.20528466 -0.115824,0.13159276 -0.184252,0.31319078 -0.06841,0.1815981 -0.06841,0.3974098 V 1.7002495 h 0.242152 q 0.08953,0 0.126326,0.039479 0.03944,0.039479 0.03944,0.1394899 0,0.1000109 -0.03944,0.1394871 -0.03679,0.039479 -0.126326,0.039479 h -0.852712 q -0.08953,0 -0.128967,-0.039479 -0.0367,-0.039479 -0.0367,-0.1394871 0,-0.100011 0.0367,-0.1394899 0.03944,-0.039479 0.128962,-0.039479 h 0.215819 z"
         style="font-size:5.64444px;line-height:1.25;font-family:'Courier Prime';-inkscape-font-specification:'Courier Prime';fill:#c4c4c4;stroke-width:0.252651"
         id="path10291" />
      <path
         d="m 30.752564,1.7002495 q 0.08953,0 0.126325,0.039479 0.03944,0.039479 0.03944,0.1394899 0,0.1000109 -0.03944,0.1394871 -0.0367,0.039479 -0.126325,0.039479 h -0.418462 q -0.08953,0 -0.128962,-0.039479 -0.03683,-0.039479 -0.03683,-0.1394872 V 1.6686667 q -0.163168,0.2131793 -0.381618,0.3316127 -0.215811,0.1158027 -0.478997,0.1158027 -0.244763,0 -0.452661,-0.0816 -0.207932,-0.084209 -0.360593,-0.2394929 -0.150001,-0.1552796 -0.236848,-0.3789874 -0.08681,-0.2237084 -0.08681,-0.50794797 0,-0.28424053 0.08677,-0.50794821 0.08677,-0.22370769 0.236848,-0.37898715 0.152664,-0.15527945 0.360584,-0.23686689 0.2079,-0.0842195 0.452663,-0.0842195 0.263194,0 0.468484,0.1079061 0.207902,0.10527408 0.365818,0.30266324 V -1.0368824 h -0.531642 q -0.08953,0 -0.128947,-0.039479 -0.03683,-0.039479 -0.03683,-0.1394895 0,-0.1000111 0.03683,-0.1394871 0.03944,-0.039479 0.128947,-0.039479 h 0.760615 q 0.08953,0 0.126326,0.039479 0.03944,0.039479 0.03944,0.1394871 V 1.7002479 Z M 30.141966,0.90806014 q 0,-0.19475746 -0.0605,-0.34740509 -0.0605,-0.15264763 -0.168433,-0.25528996 -0.107907,-0.10527414 -0.257928,-0.16054317 -0.147384,-0.05526918 -0.321079,-0.05526918 -0.178972,0 -0.318468,0.06053219 -0.139493,0.0605321 -0.234233,0.17107048 -0.09466,0.10790605 -0.144745,0.25792187 -0.05009,0.15001577 -0.05009,0.32898176 0,0.17896526 0.05009,0.32898146 0.05009,0.1500156 0.144745,0.2605543 0.09466,0.1079042 0.234233,0.1684383 0.139496,0.06054 0.318468,0.06054 0.173695,0 0.321079,-0.055256 0.150021,-0.055256 0.257928,-0.1579119 0.107904,-0.1052732 0.168423,-0.2579204 0.06052,-0.1526474 0.06052,-0.34741441 z"
         style="font-size:5.64444px;line-height:1.25;font-family:'Courier Prime';-inkscape-font-specification:'Courier Prime';fill:#c4c4c4;stroke-width:0.252651"
         id="path10293" />
      <path
         d="m 31.868472,0.93964183 q 0.02091,0.39741117 0.21844,0.59743087 0.200015,0.1973907 0.568472,0.1973907 0.265815,0 0.515857,-0.06054 0.250012,-0.06054 0.431628,-0.165807 0.08414,-0.047367 0.139468,-0.00789 0.05797,0.039479 0.09224,0.1236979 0.0367,0.084205 0.01578,0.1526479 -0.02091,0.065786 -0.107908,0.1105376 -0.102628,0.05001 -0.228954,0.092128 -0.123713,0.042121 -0.265821,0.07368 -0.139498,0.028949 -0.289512,0.044739 -0.150006,0.018419 -0.302668,0.018419 -0.289494,0 -0.513197,-0.086846 -0.223743,-0.089484 -0.376408,-0.252656 -0.152637,-0.1658082 -0.234232,-0.4000438 -0.07888,-0.2368669 -0.07888,-0.53426578 0,-0.28687219 0.09225,-0.52110737 0.09466,-0.23686694 0.26054,-0.40267381 0.165806,-0.16843874 0.394791,-0.2579218 0.23159,-0.0921153 0.507943,-0.0921153 0.292131,0 0.515834,0.0921153 0.22371,0.0894841 0.376369,0.25002629 0.155277,0.16054309 0.239484,0.38161894 0.08434,0.22107586 0.100016,0.48426139 0,0.0894837 -0.03944,0.12632899 -0.03671,0.0368446 -0.126337,0.0368446 z m 0.839552,-0.98957721 q -0.328969,0 -0.539533,0.16580693 -0.207917,0.16317498 -0.273712,0.4553109 h 1.608074 Q 33.447602,0.27378284 33.252816,0.11323973 33.058055,-0.04993538 32.708024,-0.04993538 Z"
         style="font-size:5.64444px;line-height:1.25;font-family:'Courier Prime';-inkscape-font-specification:'Courier Prime';fill:#c4c4c4;stroke-width:0.252651"
         id="path10295" />
      <path
         d="m 35.266198,-0.01572119 h -0.334252 q -0.08953,0 -0.128964,-0.03947788 -0.03671,-0.03947782 -0.03671,-0.13948826 0,-0.10001055 0.03671,-0.13948829 0.03944,-0.039479 0.128964,-0.039479 h 0.536895 q 0.08953,0 0.126326,0.039479 0.03944,0.039479 0.03944,0.13948829 v 0.53163472 q 0.0974,-0.17633431 0.221086,-0.31845447 0.126331,-0.14212019 0.268439,-0.24213064 0.142134,-0.10001057 0.294771,-0.15264764 0.152641,-0.05527 0.302661,-0.05527 0.205284,0 0.38426,0.10527429 0.07634,0.0447405 0.0974,0.11053794 0.02091,0.065797 -0.01578,0.16317491 -0.03681,0.09474694 -0.09466,0.13422465 -0.05522,0.0394787 -0.131576,-0.005252 -0.131607,-0.07106045 -0.276354,-0.07106045 -0.118436,0 -0.242124,0.04474155 -0.121078,0.04210883 -0.236876,0.12106435 -0.113183,0.0763237 -0.213182,0.18686182 -0.0974,0.10790602 -0.173715,0.23949872 -0.07375,0.13159276 -0.115797,0.28160851 -0.0422,0.15001437 -0.0422,0.31055757 v 0.5105798 h 0.88695 q 0.08953,0 0.126326,0.039479 0.03944,0.039479 0.03944,0.1394899 0,0.1000105 -0.03944,0.1394868 -0.0367,0.039479 -0.126326,0.039479 h -1.69492 q -0.08953,0 -0.128967,-0.039479 -0.03669,-0.039479 -0.03669,-0.1394868 0,-0.100011 0.03669,-0.1394899 0.03944,-0.039479 0.128967,-0.039479 h 0.413208 z"
         style="font-size:5.64444px;line-height:1.25;font-family:'Courier Prime';-inkscape-font-specification:'Courier Prime';fill:#c4c4c4;stroke-width:0.252651"
         id="path10297" />
      <path
         d="m 38.703401,1.6712972 q 0,-0.092125 0.03431,-0.1710698 0.03672,-0.0816 0.0974,-0.1421205 0.06053,-0.06054 0.139492,-0.094735 0.08164,-0.036837 0.173699,-0.036837 0.09224,0 0.171083,0.036837 0.08164,0.034207 0.142107,0.094735 0.06052,0.06054 0.09466,0.1421205 0.03672,0.078958 0.03672,0.1710698 0,0.09213 -0.03672,0.1737039 -0.03431,0.078958 -0.09466,0.139487 -0.06053,0.06054 -0.142107,0.094735 -0.07888,0.036837 -0.171083,0.036837 -0.09213,0 -0.173699,-0.036837 -0.07888,-0.03422 -0.139492,-0.094735 -0.06056,-0.06054 -0.0974,-0.139487 -0.03431,-0.081599 -0.03431,-0.1737039 z"
         style="font-size:5.64444px;line-height:1.25;font-family:'Courier Prime';-inkscape-font-specification:'Courier Prime';fill:#c4c4c4;stroke-width:0.252651"
         id="path10299" />
      <path
         d="m 41.295773,-1.0368818 h -0.268455 q -0.08953,0 -0.128956,-0.039479 -0.03679,-0.039479 -0.03679,-0.1394895 0,-0.1000111 0.03679,-0.1394872 0.03944,-0.039479 0.128956,-0.039479 h 0.497435 q 0.08953,0 0.126331,0.039479 0.03944,0.039479 0.03944,0.1394872 v 1.21854931 q 0.157895,-0.20265281 0.363193,-0.31845439 0.207903,-0.11580163 0.471088,-0.11580163 0.244762,0 0.452683,0.0868503 0.207925,0.0868502 0.357946,0.25265807 0.152639,0.16317494 0.239486,0.40004196 0.08677,0.23686701 0.08677,0.53426658 0,0.2973998 -0.08677,0.5342667 -0.08677,0.2368673 -0.239486,0.4026746 -0.150021,0.1631745 -0.357946,0.2500268 -0.207921,0.086846 -0.452683,0.086846 -0.263185,0 -0.481612,-0.1158026 -0.215798,-0.118431 -0.378992,-0.3316104 v 0.2105489 q 0,0.100011 -0.03944,0.139487 -0.03668,0.039479 -0.126327,0.039479 h -0.418459 q -0.08953,0 -0.128966,-0.039479 -0.03669,-0.039479 -0.03669,-0.139487 0,-0.100011 0.03669,-0.1394895 0.03944,-0.039479 0.128966,-0.039479 h 0.215813 z m 0.394785,1.8791454 q 0,0.2105486 0.06044,0.3737227 0.06052,0.1631765 0.168438,0.2789766 0.107907,0.1131714 0.255292,0.1737036 0.150027,0.057898 0.32372,0.057898 0.178977,0 0.318468,-0.065786 0.139471,-0.065786 0.234237,-0.1815991 0.09466,-0.1184336 0.144746,-0.2789767 0.05009,-0.1631743 0.05009,-0.35793152 0,-0.19212544 -0.05009,-0.35530043 -0.05005,-0.16317615 -0.144738,-0.27897784 -0.0947,-0.11843347 -0.234237,-0.18422985 -0.139491,-0.06579638 -0.318468,-0.06579638 -0.173693,0 -0.32372,0.06053265 -0.147385,0.05790083 -0.255292,0.17370252 -0.107905,0.11316973 -0.168439,0.27897658 -0.06043,0.16317505 -0.06043,0.37109117 z"
         style="font-size:5.64444px;line-height:1.25;font-family:'Courier Prime';-inkscape-font-specification:'Courier Prime';fill:#c4c4c4;stroke-width:0.252651"
         id="path10301" />
      <path
         d="m 44.961936,-0.01572119 h -0.33423 q -0.08953,0 -0.128958,-0.03947788 -0.03683,-0.03947782 -0.03683,-0.13948826 0,-0.10001055 0.03683,-0.13948829 0.03944,-0.039479 0.128958,-0.039479 h 0.536899 q 0.08953,0 0.12633,0.039479 0.03944,0.039479 0.03944,0.13948829 v 0.53163472 q 0.0974,-0.17633431 0.221064,-0.31845447 0.126327,-0.14212019 0.268457,-0.24213064 0.142112,-0.10001057 0.294773,-0.15264764 0.152637,-0.05527 0.30266,-0.05527 0.205284,0 0.384252,0.10527429 0.0764,0.0447405 0.0974,0.11053794 0.02091,0.065797 -0.01578,0.16317491 -0.03674,0.09474694 -0.09466,0.13422465 -0.05522,0.0394787 -0.131603,-0.005252 -0.131581,-0.07106045 -0.276339,-0.07106045 -0.118424,0 -0.242137,0.04474155 -0.12105,0.04210973 -0.236872,0.12106521 -0.113158,0.0763237 -0.213175,0.18686178 -0.0974,0.10790604 -0.173695,0.23949878 -0.07375,0.13159275 -0.115797,0.2816085 -0.0422,0.150014 -0.0422,0.3105572 v 0.5105798 h 0.886945 q 0.08953,0 0.126333,0.039479 0.03944,0.039479 0.03944,0.1394899 0,0.1000106 -0.03944,0.1394868 -0.03683,0.039479 -0.126333,0.039479 h -1.694919 q -0.08953,0 -0.128963,-0.039479 -0.03674,-0.039479 -0.03674,-0.1394868 0,-0.100011 0.03674,-0.1394899 0.03944,-0.039479 0.128963,-0.039479 h 0.413182 z"
         style="font-size:5.64444px;line-height:1.25;font-family:'Courier Prime';-inkscape-font-specification:'Courier Prime';fill:#c4c4c4;stroke-width:0.252651"
         id="path10303" />
      <path
         d="m 48.028052,0.93964183 q 0.02091,0.39741117 0.218447,0.59743087 0.200029,0.1973907 0.568482,0.1973907 0.265824,0 0.515835,-0.06054 0.250042,-0.06054 0.431627,-0.165807 0.08427,-0.047367 0.139496,-0.00789 0.05797,0.039479 0.0922,0.1236979 0.03676,0.084205 0.01578,0.1526479 -0.02091,0.065786 -0.107907,0.1105376 -0.102653,0.05001 -0.228982,0.092128 -0.123688,0.042121 -0.265817,0.07368 -0.139473,0.028949 -0.289498,0.044739 -0.150023,0.018419 -0.302661,0.018419 -0.289515,0 -0.513219,-0.086846 -0.223716,-0.089487 -0.376353,-0.2526574 -0.15266,-0.1658082 -0.234234,-0.4000438 -0.07888,-0.2368669 -0.07888,-0.53426572 0,-0.28687225 0.09213,-0.52110742 0.09466,-0.23686687 0.260567,-0.40267382 0.165805,-0.16843867 0.394764,-0.25792176 0.231617,-0.0921153 0.507948,-0.0921153 0.292152,0 0.515857,0.0921153 0.223702,0.0894841 0.37634,0.25002626 0.155281,0.16054311 0.239511,0.38161893 0.08419,0.22107586 0.100017,0.48426139 0,0.0894841 -0.03944,0.126329 -0.03686,0.0368443 -0.126339,0.0368443 z m 0.839574,-0.98957721 q -0.328997,0 -0.539531,0.16580693 -0.207921,0.16317498 -0.273716,0.4553109 h 1.608054 Q 49.607181,0.27378284 49.412414,0.11323973 49.217661,-0.04993538 48.867626,-0.04993538 Z"
         style="font-size:5.64444px;line-height:1.25;font-family:'Courier Prime';-inkscape-font-specification:'Courier Prime';fill:#c4c4c4;stroke-width:0.252651"
         id="path10305" />
      <path
         d="m 51.259969,0.93964183 q 0.02091,0.39741117 0.218454,0.59743087 0.200005,0.1973907 0.568482,0.1973907 0.265819,0 0.515835,-0.06054 0.250034,-0.06054 0.431628,-0.165807 0.08418,-0.047367 0.139495,-0.00789 0.05797,0.039479 0.09218,0.1236979 0.03681,0.084205 0.01578,0.1526479 -0.02091,0.065786 -0.107906,0.1105376 -0.102654,0.05001 -0.22898,0.092128 -0.123686,0.042121 -0.26582,0.07368 -0.139481,0.028949 -0.289495,0.044739 -0.150024,0.018419 -0.30266,0.018419 -0.289519,0 -0.513225,-0.086846 Q 51.310019,1.9397464 51.15738,1.7765738 51.004718,1.6107656 50.923147,1.37653 q -0.07889,-0.2368669 -0.07889,-0.53426575 0,-0.28687222 0.09222,-0.5211074 0.09466,-0.23686691 0.260551,-0.40267381 0.165812,-0.16843869 0.394779,-0.25792177 0.231601,-0.0921153 0.507945,-0.0921153 0.292137,0 0.515853,0.0921153 0.223713,0.0894843 0.376351,0.25002627 0.155275,0.16054313 0.239508,0.38161893 0.08421,0.22107586 0.1,0.4842614 0,0.0894842 -0.03944,0.12632898 -0.03672,0.0368439 -0.12633,0.0368439 z m 0.839557,-0.98957721 q -0.328972,0 -0.539513,0.16580693 -0.207917,0.16317498 -0.273726,0.4553109 h 1.608064 Q 52.839098,0.27378284 52.644338,0.11323973 52.449582,-0.04993538 52.099526,-0.04993538 Z"
         style="font-size:5.64444px;line-height:1.25;font-family:'Courier Prime';-inkscape-font-specification:'Courier Prime';fill:#c4c4c4;stroke-width:0.252651"
         id="path10307" />
      <path
         d="m 54.328724,-0.01572119 h -0.268457 q -0.08953,0 -0.128965,-0.03947788 -0.0367,-0.03947782 -0.0367,-0.13948826 0,-0.10001055 0.0367,-0.13948829 0.03944,-0.039479 0.128965,-0.039479 h 0.471104 q 0.08953,0 0.126328,0.039479 0.03944,0.039479 0.03944,0.13948829 v 0.31582259 q 0.173697,-0.27108103 0.405313,-0.41056936 0.231597,-0.1421203 0.502672,-0.1421203 0.181607,0 0.326355,0.0605321 0.144751,0.0605321 0.244761,0.17107064 0.102653,0.11053792 0.15528,0.27108101 0.05522,0.15791128 0.05522,0.35530046 V 1.7002495 h 0.215808 q 0.08953,0 0.126331,0.039479 0.03944,0.039479 0.03944,0.1394899 0,0.1000109 -0.03944,0.1394871 -0.03679,0.039479 -0.126331,0.039479 h -0.852717 q -0.08953,0 -0.128962,-0.039479 -0.03677,-0.039479 -0.03677,-0.1394871 0,-0.100011 0.03677,-0.1394899 0.03944,-0.039479 0.128964,-0.039479 h 0.242136 V 0.46590836 q 0,-0.11316981 -0.02642,-0.20528484 -0.02641,-0.094746 -0.07888,-0.16054314 -0.05259,-0.06842811 -0.134233,-0.1052742 -0.07888,-0.03684592 -0.186864,-0.03684592 -0.168427,0 -0.321081,0.07369191 -0.152629,0.07369192 -0.26843,0.20528466 -0.115801,0.13159276 -0.184234,0.31319078 -0.06842,0.1815981 -0.06842,0.3974098 V 1.7002495 h 0.242146 q 0.08953,0 0.126326,0.039479 0.03944,0.039479 0.03944,0.1394899 0,0.1000109 -0.03944,0.1394871 -0.03675,0.039479 -0.126326,0.039479 h -0.852717 q -0.08953,0 -0.128963,-0.039479 -0.03672,-0.039479 -0.03672,-0.1394871 0,-0.100011 0.03672,-0.1394899 0.03944,-0.039479 0.12896,-0.039479 h 0.215811 z"
         style="font-size:5.64444px;line-height:1.25;font-family:'Courier Prime';-inkscape-font-specification:'Courier Prime';fill:#c4c4c4;stroke-width:0.252651"
         id="path10309" />
      <path
         d="m 57.055318,1.0343899 q 0,-0.3868836 0.121067,-0.71849737 0.121065,-0.33161372 0.334251,-0.57374443 0.215814,-0.24476252 0.507943,-0.38161893 0.294772,-0.13948832 0.642164,-0.13948832 0.3053,0 0.552701,0.10790608 0.250016,0.10527409 0.423733,0.2973996 0.176329,0.18949347 0.271076,0.45531079 0.09466,0.26318558 0.09466,0.57900821 0,0.23160333 -0.05522,0.42372987 -0.05259,0.1894921 -0.150026,0.3263481 -0.09466,0.1368581 -0.231593,0.2131818 -0.136856,0.073681 -0.302661,0.073681 -0.173718,0 -0.294771,-0.086846 -0.121074,-0.086846 -0.181609,-0.2526581 -0.06046,0.078958 -0.121052,0.1447518 -0.06052,0.063178 -0.12633,0.110538 -0.06586,0.044735 -0.139492,0.07107 -0.07375,0.026307 -0.163169,0.026307 -0.0974,0 -0.18161,-0.039479 -0.08416,-0.039479 -0.147386,-0.1158005 -0.06311,-0.076316 -0.10001,-0.1842293 -0.03431,-0.1105381 -0.03431,-0.2526581 0,-0.1184335 0.02882,-0.24739528 0.02882,-0.12896087 0.08164,-0.2526581 0.05255,-0.12632902 0.128962,-0.2394988 0.07642,-0.11316979 0.168432,-0.1973891 0.09224,-0.08685027 0.200026,-0.13685648 0.107907,-0.05263715 0.226344,-0.05263715 0.126326,0 0.205283,0.07369198 0.08164,0.07105956 0.131582,0.18949359 l 0.08164,-0.16580688 q 0.01302,-0.02895015 0.06054,-0.02895015 0.04733,0 0.09466,0.01842269 0.04733,0.01842252 0.07888,0.05000539 0.03431,0.0315833 0.02366,0.0710593 l -0.202375,0.79482704 q -0.04459,0.17106975 0.0083,0.27108065 0.05263,0.100011 0.171084,0.100011 0.100003,0 0.178956,-0.050009 0.07888,-0.052652 0.131596,-0.1447517 0.05522,-0.094735 0.08421,-0.22370811 0.02884,-0.12896064 0.02884,-0.28687192 0,-0.25792184 -0.07375,-0.4632065 -0.07099,-0.20791652 -0.205283,-0.35266862 -0.134218,-0.14475196 -0.326356,-0.22107581 -0.192118,-0.0789544 -0.431618,-0.0789544 -0.273718,0 -0.505318,0.11580163 -0.231594,0.11316977 -0.402675,0.31319075 -0.168452,0.20002104 -0.265828,0.47373395 -0.09466,0.27108106 -0.09466,0.58690353 0,0.2526581 0.06586,0.4579417 0.0684,0.202653 0.19739,0.3474045 0.128965,0.1421208 0.318463,0.2184446 0.192121,0.078958 0.436883,0.078958 0.189502,0 0.3632,-0.028949 0.173696,-0.026307 0.30792,-0.068428 0.09466,-0.028949 0.136857,0.1131685 0.02091,0.07107 0.0055,0.1105379 -0.01302,0.042121 -0.05522,0.06054 -0.139485,0.06054 -0.336869,0.097378 -0.197395,0.039479 -0.415841,0.039479 -0.315823,0 -0.56585,-0.1000108 Q 57.58722,2.263468 57.413511,2.076606 57.23976,1.8923754 57.147658,1.62919 57.055518,1.3660053 57.055518,1.0343925 Z m 1.073805,0.078958 q 0,0.1289603 0.04733,0.1868614 0.05009,0.057898 0.126326,0.057898 0.102636,0 0.192117,-0.07107 0.08953,-0.073688 0.155279,-0.1868617 0.06841,-0.11317101 0.107905,-0.25002694 0.03944,-0.1394883 0.03944,-0.26844918 0,-0.12369728 -0.05522,-0.18949367 -0.05256,-0.0657971 -0.144745,-0.0657971 -0.07099,0 -0.155279,0.0684278 -0.08164,0.0684279 -0.152659,0.17896617 -0.06841,0.11053792 -0.1158,0.2526581 -0.04464,0.13949029 -0.04464,0.28687342 z"
         style="font-size:5.64444px;line-height:1.25;font-family:'Courier Prime';-inkscape-font-specification:'Courier Prime';fill:#c4c4c4;stroke-width:0.252651"
         id="path10311" />
      <path
         d="m 62.461148,0.77646725 q 0,-0.19475734 -0.06055,-0.34740497 Q 62.340078,0.27641472 62.232162,0.17377239 62.124261,0.0684982 61.97425,0.01322914 q -0.147386,-0.05526888 -0.321089,-0.05526888 -0.178966,0 -0.31846,0.06053266 -0.139496,0.06053258 -0.234235,0.17107053 -0.09466,0.10790609 -0.144746,0.25792187 -0.05009,0.15001576 -0.05009,0.32898193 0,0.1789656 0.05009,0.32898145 0.05009,0.1500164 0.144746,0.260554 0.09466,0.1079066 0.234235,0.1684387 0.139494,0.06054 0.31846,0.06054 0.173703,0 0.321089,-0.055256 0.150011,-0.055256 0.257912,-0.1579103 0.107899,-0.1052756 0.168438,-0.257923 0.06059,-0.15264733 0.06059,-0.34740422 z M 60.995212,2.6135027 q 0.181587,0.076316 0.381619,0.1105376 0.200006,0.036837 0.392148,0.036837 0.176333,0 0.305293,-0.047367 0.131584,-0.044739 0.215814,-0.1315942 0.08677,-0.084204 0.128945,-0.2026529 0.0422,-0.1184329 0.0422,-0.2631845 V 1.5739202 q -0.157919,0.197388 -0.365841,0.3052947 -0.205283,0.1052731 -0.468465,0.1052731 -0.244763,0 -0.45268,-0.081599 Q 60.966334,1.818684 60.813671,1.6633898 60.663668,1.5081112 60.57681,1.2844027 60.49004,1.060696 60.49004,0.77645546 q 0,-0.28424036 0.08677,-0.50794804 0.08677,-0.22370768 0.236859,-0.37898711 0.152663,-0.15527947 0.360568,-0.23686702 0.207915,-0.0842195 0.452678,-0.0842195 0.263182,0 0.478996,0.11843358 0.21845,0.11580161 0.381617,0.32898182 v -0.21054681 q 0,-0.10001061 0.03676,-0.13948828 0.03944,-0.039479 0.128957,-0.039479 h 0.418474 q 0.08953,0 0.126325,0.039479 0.03944,0.039479 0.03944,0.13948828 0,0.10001042 -0.03944,0.13948826 -0.03675,0.03947788 -0.126326,0.03947788 h -0.2158 V 2.1502955 q 0,0.2368665 -0.07375,0.421097 -0.07099,0.1868613 -0.210537,0.3131905 -0.139496,0.1289603 -0.342143,0.1973883 -0.202657,0.068428 -0.460573,0.068428 -0.228979,0 -0.460576,-0.039479 -0.231606,-0.039479 -0.439516,-0.1184335 -0.07099,-0.028949 -0.09466,-0.086846 -0.02091,-0.057898 0.01302,-0.1579094 0.03431,-0.1000109 0.08677,-0.1315942 0.05522,-0.031591 0.121073,-0.00276 z"
         style="font-size:5.64444px;line-height:1.25;font-family:'Courier Prime';-inkscape-font-specification:'Courier Prime';fill:#c4c4c4;stroke-width:0.252651"
         id="path10313" />
      <path
         d="m 64.100802,0.06586638 q 0.1158,-0.25529008 0.273712,-0.37635535 0.157912,-0.12106543 0.339502,-0.12106543 0.08677,0 0.163173,0.0289499 0.07888,0.0289493 0.144762,0.0894842 0.06586,0.0579013 0.113163,0.14738379 0.05009,0.08948308 0.07375,0.21054851 0.118437,-0.2421307 0.271096,-0.3579323 0.152634,-0.1184336 0.334246,-0.1184336 0.11316,0 0.210536,0.0421098 0.100018,0.0421098 0.173702,0.12896094 0.07375,0.0868503 0.115805,0.2210758 0.0447,0.13159278 0.0447,0.31319073 V 1.7002495 h 0.16317 q 0.08953,0 0.126328,0.039479 0.03944,0.039479 0.03944,0.1394899 0,0.1000109 -0.03944,0.1394871 -0.03674,0.039479 -0.126328,0.039479 h -0.39214 q -0.08953,0 -0.128956,-0.039479 -0.03673,-0.039479 -0.03673,-0.1394871 V 0.32115631 q 0,-0.17633429 -0.05797,-0.2684492 -0.05797,-0.09474675 -0.192113,-0.09474675 -0.09466,0 -0.178975,0.06579639 -0.08164,0.06579642 -0.144746,0.18422982 -0.06051,0.11843342 -0.0974,0.28424039 -0.03679,0.1631749 -0.03679,0.36319593 V 1.7002495 h 0.150009 q 0.08953,0 0.126332,0.039479 0.03944,0.039479 0.03944,0.1394899 0,0.1000109 -0.03944,0.1394871 -0.03673,0.039479 -0.126332,0.039479 h -0.378979 q -0.08953,0 -0.128966,-0.039479 -0.0367,-0.039479 -0.0367,-0.1394872 V 0.32115631 q 0,-0.17633429 -0.05797,-0.2684492 -0.05797,-0.09474675 -0.192138,-0.09474675 -0.09466,0 -0.178955,0.06579639 -0.08164,0.06579642 -0.144766,0.18422982 -0.06051,0.11843342 -0.0974,0.28424039 -0.0367,0.1631749 -0.0367,0.36319593 V 1.7002495 h 0.136856 q 0.08953,0 0.126327,0.039479 0.03944,0.039479 0.03944,0.1394899 0,0.1000109 -0.03944,0.1394871 -0.03672,0.039479 -0.126327,0.039479 h -0.747515 q -0.08953,0 -0.128951,-0.039479 -0.03679,-0.039479 -0.03679,-0.1394871 0,-0.100011 0.03679,-0.1394899 0.03944,-0.039479 0.128945,-0.039479 h 0.215776 v -1.71597069 h -0.21581 q -0.08953,0 -0.128949,-0.03947788 -0.03679,-0.03947782 -0.03679,-0.13948826 0,-0.10001055 0.03679,-0.13948829 0.03944,-0.039479 0.128949,-0.039479 h 0.392145 q 0.08953,0 0.126335,0.039479 0.03944,0.039479 0.03944,0.13948829 z"
         style="font-size:5.64444px;line-height:1.25;font-family:'Courier Prime';-inkscape-font-specification:'Courier Prime';fill:#c4c4c4;stroke-width:0.252651"
         id="path10315" />
      <path
         d="m 69.501362,1.7002495 q 0.08953,0 0.126327,0.039479 0.03944,0.039479 0.03944,0.1394899 0,0.1000109 -0.03944,0.1394871 -0.0367,0.039479 -0.126327,0.039479 h -0.168444 q -0.08164,0 -0.155277,-0.018418 -0.07375,-0.021061 -0.134216,-0.063176 Q 68.985455,1.9344695 68.94077,1.8713174 68.89857,1.8081464 68.88023,1.7213008 68.672332,1.9029005 68.422295,2.0108043 68.17228,2.11608 67.880145,2.11608 q -0.19739,0 -0.363198,-0.052651 -0.165811,-0.050005 -0.286883,-0.1473832 -0.121074,-0.1000107 -0.1895,-0.24213 -0.06586,-0.1421195 -0.06586,-0.3263498 0,-0.2210752 0.08428,-0.37635611 0.08677,-0.15527899 0.231612,-0.25002577 0.147386,-0.0973788 0.3395,-0.14212011 0.194755,-0.0447405 0.410569,-0.0447405 0.213173,0 0.413205,0.034214 0.200026,0.034214 0.386878,0.10001055 v -0.2236964 q 0,-0.25529007 -0.123695,-0.37372352 -0.121068,-0.12106528 -0.418458,-0.12106528 -0.213178,0 -0.428991,0.05790078 -0.213195,0.05526901 -0.379002,0.17370243 -0.06045,0.0447405 -0.123689,0.0315833 -0.06311,-0.0131595 -0.121074,-0.094746 -0.05797,-0.08158771 -0.04733,-0.14475212 0.01302,-0.06579628 0.07375,-0.11053787 0.10263,-0.0763237 0.226337,-0.13159269 0.123696,-0.0579013 0.255275,-0.0921153 0.134242,-0.0368446 0.271099,-0.0526363 0.139482,-0.0184223 0.273712,-0.0184223 0.471105,0 0.702699,0.22107585 0.234224,0.22107635 0.234224,0.65533248 V 1.4923319 q 0,0.2079178 0.173695,0.2079178 z M 68.840755,1.0238605 Q 68.659167,0.9633228 68.453883,0.9343765 68.248599,0.9054268 68.043315,0.9054268 q -0.142132,0 -0.263182,0.0236901 -0.118436,0.0236933 -0.205282,0.0763209 -0.08677,0.050009 -0.136857,0.1342247 -0.04733,0.0816 -0.04733,0.200022 0,0.1921262 0.131581,0.3000303 0.134219,0.1052752 0.373728,0.1052752 0.281604,0 0.515836,-0.1158024 0.234234,-0.1184333 0.428987,-0.3184546 z"
         style="font-size:5.64444px;line-height:1.25;font-family:'Courier Prime';-inkscape-font-specification:'Courier Prime';fill:#c4c4c4;stroke-width:0.252651"
         id="path10317" />
      <path
         d="m 71.333137,-0.01572119 h -0.665861 q -0.08953,0 -0.128964,-0.03947788 -0.03673,-0.03947782 -0.03673,-0.13948826 0,-0.10001055 0.03673,-0.13948829 0.03944,-0.039479 0.128964,-0.039479 h 0.89483 q 0.08953,0 0.126332,0.039479 0.03944,0.039479 0.03944,0.13948829 V 1.7002495 h 0.844816 q 0.08953,0 0.126326,0.039479 0.03944,0.039479 0.03944,0.1394899 0,0.1000109 -0.03944,0.1394871 -0.0367,0.039479 -0.126326,0.039479 h -2.063367 q -0.08953,0 -0.128964,-0.039479 -0.03672,-0.039479 -0.03672,-0.1394871 0,-0.100011 0.03672,-0.1394899 0.03944,-0.039479 0.128965,-0.039479 h 0.823774 z m 0.39478,-1.00010471 q 0,0.0921153 -0.05008,0.1315925 -0.05009,0.039479 -0.200024,0.039479 -0.150014,0 -0.200017,-0.039479 -0.05008,-0.039479 -0.05008,-0.1315925 v -0.3421423 q 0,-0.092128 0.05008,-0.1315907 0.05009,-0.039479 0.200017,-0.039479 0.150017,0 0.200024,0.039479 0.05008,0.039479 0.05008,0.1315907 z"
         style="font-size:5.64444px;line-height:1.25;font-family:'Courier Prime';-inkscape-font-specification:'Courier Prime';fill:#c4c4c4;stroke-width:0.252651"
         id="path10319" />
      <path
         d="m 74.538729,-1.0368818 h -0.718491 q -0.08953,0 -0.128964,-0.039479 -0.0367,-0.039479 -0.0367,-0.1394895 0,-0.1000111 0.0367,-0.1394872 0.03944,-0.039479 0.128964,-0.039479 h 0.947464 q 0.08953,0 0.126329,0.039479 0.03944,0.039479 0.03944,0.1394872 V 1.700247 h 0.844831 q 0.08953,0 0.126326,0.039479 0.03944,0.039479 0.03944,0.1394898 0,0.100011 -0.03944,0.1394871 -0.0367,0.039479 -0.126326,0.039479 h -2.063371 q -0.08953,0 -0.128961,-0.039479 -0.03674,-0.039479 -0.03674,-0.1394871 0,-0.100011 0.03674,-0.1394898 0.03944,-0.039479 0.128961,-0.039479 h 0.823771 z"
         style="font-size:5.64444px;line-height:1.25;font-family:'Courier Prime';-inkscape-font-specification:'Courier Prime';fill:#c4c4c4;stroke-width:0.252651"
         id="path10321" />
      <path
         d="m 77.486403,1.6712972 q 0,-0.092125 0.03431,-0.1710698 0.03672,-0.0816 0.0974,-0.1421205 0.06052,-0.06054 0.139489,-0.094735 0.08164,-0.036837 0.173702,-0.036837 0.09216,0 0.171056,0.036837 0.08164,0.034207 0.142133,0.094735 0.06058,0.06054 0.09466,0.1421205 0.03679,0.078958 0.03679,0.1710698 0,0.09213 -0.03679,0.1737039 -0.03431,0.078958 -0.09466,0.139487 -0.0605,0.06054 -0.142133,0.094735 -0.07888,0.036837 -0.171056,0.036837 -0.09223,0 -0.173702,-0.036837 -0.07888,-0.03422 -0.139489,-0.094735 -0.06051,-0.06054 -0.0974,-0.139487 -0.03431,-0.081599 -0.03431,-0.1737039 z"
         style="font-size:5.64444px;line-height:1.25;font-family:'Courier Prime';-inkscape-font-specification:'Courier Prime';fill:#c4c4c4;stroke-width:0.252651"
         id="path10323" />
      <path
         d="m 81.91319,0.5027542 q 0,-0.11843346 -0.04733,-0.21844392 Q 81.818527,0.18429976 81.723743,0.11323973 81.631517,0.03954765 81.494763,6.9976479e-5 81.357908,-0.04203974 81.176308,-0.04203974 q -0.192123,0 -0.355294,0.06579639 -0.16055,0.06579642 -0.276347,0.18422982 -0.115801,0.11843343 -0.181594,0.28160857 -0.06586,0.16054308 -0.06586,0.35266856 0,0.1921263 0.06048,0.3553003 0.06056,0.160543 0.171076,0.2789765 0.113166,0.118433 0.27108,0.1842303 0.157912,0.065786 0.350031,0.065786 0.242137,0 0.468466,-0.073689 0.226342,-0.073689 0.415843,-0.2184441 0.06839,-0.052652 0.128962,-0.039479 0.06053,0.013172 0.115801,0.1052739 0.04463,0.07107 0.03673,0.1473832 -0.0055,0.076316 -0.08164,0.1315935 -0.213186,0.1579123 -0.497424,0.2473937 -0.284235,0.089489 -0.586906,0.089489 -0.289495,0 -0.52373,-0.094735 -0.234098,-0.097382 -0.399902,-0.268452 -0.165811,-0.1710704 -0.255294,-0.4026747 -0.08953,-0.2342356 -0.08953,-0.50794781 0,-0.27371291 0.09214,-0.50531614 0.09222,-0.23423508 0.257931,-0.40530571 0.168439,-0.17107057 0.400037,-0.26581735 0.234233,-0.0973785 0.518475,-0.0973785 0.239507,0 0.434262,0.0868503 0.194755,0.0842195 0.328974,0.24213066 v -0.1579108 q 0,-0.0921153 0.0422,-0.13159273 0.04462,-0.039479 0.155278,-0.039479 0.110545,0 0.152644,0.039479 0.04466,0.039479 0.04466,0.13159273 V 0.5027572 q 0,0.0921153 -0.04466,0.13159276 -0.0422,0.039479 -0.152644,0.039479 -0.110545,0 -0.155278,-0.039479 -0.0422,-0.039479 -0.0422,-0.13159276 z"
         style="font-size:5.64444px;line-height:1.25;font-family:'Courier Prime';-inkscape-font-specification:'Courier Prime';fill:#c4c4c4;stroke-width:0.252651"
         id="path10325" />
      <path
         d="m 83.094897,0.8422636 q 0,-0.27897673 0.0974,-0.51057984 0.1,-0.23423519 0.273713,-0.40267392 0.173701,-0.17107055 0.410568,-0.26581731 0.239489,-0.0947461 0.518479,-0.0947461 0.278964,0 0.515837,0.0947461 0.239504,0.094746 0.413206,0.26581731 0.173697,0.16843873 0.271074,0.40267392 0.100016,0.23160311 0.100016,0.51057984 0,0.2789765 -0.100016,0.5132122 -0.0974,0.2316023 -0.271074,0.4026724 -0.173702,0.1684387 -0.413206,0.2631872 -0.236873,0.094735 -0.515837,0.094735 -0.27899,0 -0.518479,-0.094735 Q 83.639693,1.9265871 83.465992,1.7581482 83.292277,1.5870781 83.19228,1.3554758 83.094901,1.1212401 83.094901,0.8422636 Z m 0.415827,0 q 0,0.1921263 0.06311,0.3553003 0.06586,0.160543 0.181593,0.2789765 0.115795,0.118433 0.278982,0.1842303 0.163172,0.065786 0.360566,0.065786 0.197386,0 0.36056,-0.065786 0.163166,-0.065786 0.278971,-0.1842303 0.115809,-0.1184335 0.178966,-0.2789765 0.06586,-0.163174 0.06586,-0.3553003 0,-0.19212548 -0.06586,-0.35266856 -0.06311,-0.16317514 -0.178958,-0.28160857 -0.1158,-0.1184334 -0.278966,-0.18422982 -0.163174,-0.06579639 -0.360561,-0.06579639 -0.197393,0 -0.360565,0.06579639 -0.163187,0.06579642 -0.278982,0.18422982 -0.115799,0.11843343 -0.181593,0.28160857 -0.06311,0.16054308 -0.06311,0.35266856 z"
         style="font-size:5.64444px;line-height:1.25;font-family:'Courier Prime';-inkscape-font-specification:'Courier Prime';fill:#c4c4c4;stroke-width:0.252651"
         id="path10327" />
      <path
         d="m 86.724226,0.06586638 q 0.115797,-0.25529008 0.273713,-0.37635535 0.157911,-0.12106543 0.339501,-0.12106543 0.08677,0 0.163183,0.0289499 0.07888,0.0289493 0.144751,0.0894842 0.06586,0.0579013 0.113162,0.14738379 0.05008,0.08948308 0.07375,0.21054851 0.118437,-0.2421307 0.271083,-0.3579323 0.152636,-0.1184336 0.334243,-0.1184336 0.113164,0 0.210541,0.0421098 0.100018,0.0421098 0.173714,0.12896094 0.07375,0.0868503 0.115799,0.2210758 0.04463,0.13159278 0.04463,0.31319073 V 1.7002495 h 0.163184 q 0.08953,0 0.126326,0.039479 0.03944,0.039479 0.03944,0.1394899 0,0.1000109 -0.03944,0.1394871 -0.03679,0.039479 -0.126326,0.039479 h -0.392138 q -0.08953,0 -0.128961,-0.039479 -0.03676,-0.039479 -0.03676,-0.1394871 V 0.32115631 q 0,-0.17633429 -0.05797,-0.2684492 -0.05797,-0.09474675 -0.192115,-0.09474675 -0.09466,0 -0.178976,0.06579639 -0.08164,0.06579642 -0.144745,0.18422982 -0.06056,0.11843342 -0.0974,0.28424039 -0.03674,0.1631749 -0.03674,0.36319593 V 1.7002495 h 0.150007 q 0.08953,0 0.126338,0.039479 0.03944,0.039479 0.03944,0.1394899 0,0.1000109 -0.03944,0.1394871 -0.03679,0.039479 -0.126338,0.039479 h -0.37898 q -0.08953,0 -0.128966,-0.039479 -0.0367,-0.039479 -0.0367,-0.1394872 V 0.32115631 q 0,-0.17633429 -0.05797,-0.2684492 -0.05797,-0.09474675 -0.192127,-0.09474675 -0.09466,0 -0.178965,0.06579639 -0.08164,0.06579642 -0.144753,0.18422982 -0.06046,0.11843342 -0.0974,0.28424039 -0.03679,0.1631749 -0.03679,0.36319593 V 1.7002495 h 0.13686 q 0.08953,0 0.126332,0.039479 0.03944,0.039479 0.03944,0.1394899 0,0.1000109 -0.03944,0.1394871 -0.03672,0.039479 -0.126332,0.039479 h -0.747522 q -0.08953,0 -0.128965,-0.039479 -0.03673,-0.039479 -0.03673,-0.1394871 0,-0.100011 0.03673,-0.1394899 0.03943,-0.039479 0.128953,-0.039479 h 0.215812 V -0.01572119 H 86.16632 q -0.08953,0 -0.128965,-0.03947788 -0.03673,-0.03947782 -0.03673,-0.13948826 0,-0.10001055 0.03673,-0.13948829 0.03944,-0.039479 0.128965,-0.039479 h 0.392147 q 0.08953,0 0.126328,0.039479 0.03944,0.039479 0.03944,0.13948829 z"
         style="font-size:5.64444px;line-height:1.25;font-family:'Courier Prime';-inkscape-font-specification:'Courier Prime';fill:#c4c4c4;stroke-width:0.252651"
         id="path10329" />
    </g>
  </g>
</svg>
