<?xml version="1.0" encoding="UTF-8"?>
<svg width="12" height="14" version="1.1" viewBox="0 0 12 14" xmlns="http://www.w3.org/2000/svg">
 <g fill="#fff" stroke-width=".023817">
  <path d="m6 3.0811c1.6021 0 1.7918 0.00612 2.4246 0.034987 0.58499 0.026698 0.90266 0.12442 1.1141 0.20659a1.859 1.859 0 0 1 0.68988 0.44883 1.859 1.859 0 0 1 0.44883 0.68988c0.08217 0.21142 0.17991 0.52912 0.20659 1.1141 0.02886 0.6327 0.03498 0.82245 0.03498 2.4246 0 1.6021-0.0061 1.7918-0.03498 2.4246-0.0267 0.58499-0.12444 0.90267-0.20659 1.1141a1.987 1.987 0 0 1-1.1387 1.1387c-0.21142 0.08217-0.52912 0.17992-1.1141 0.20659-0.63258 0.02886-0.82232 0.03498-2.4246 0.03498s-1.7919-0.0062-2.4246-0.03498c-0.58499-0.0267-0.90266-0.12444-1.1141-0.20659a1.8589 1.8589 0 0 1-0.68988-0.44883 1.859 1.859 0 0 1-0.44883-0.68988c-0.082168-0.21142-0.17991-0.52912-0.20659-1.1141-0.028866-0.63268-0.034987-0.82245-0.034987-2.4246 0-1.6021 0.00612-1.7918 0.034987-2.4246 0.026699-0.58499 0.12442-0.90267 0.20659-1.1141a1.859 1.859 0 0 1 0.44888-0.68991 1.859 1.859 0 0 1 0.68988-0.44883c0.21142-0.082169 0.52912-0.17991 1.1141-0.20659 0.63269-0.028866 0.82244-0.034987 2.4246-0.034987m0-1.0811c-1.6295 0-1.8339 0.0069069-2.4738 0.036107-0.63865 0.029152-1.0748 0.13056-1.4564 0.2789a2.9411 2.9411 0 0 0-1.0627 0.69205 2.9411 2.9411 0 0 0-0.69224 1.0627c-0.14821 0.38167-0.24962 0.81781-0.27866 1.4565-0.029319 0.63987-0.036225 0.84427-0.036225 2.4738 0 1.6295 0.0069069 1.8339 0.036225 2.4738 0.029152 0.63865 0.13056 1.0748 0.2789 1.4564a2.9411 2.9411 0 0 0 0.69205 1.0627 2.941 2.9411 0 0 0 1.0627 0.69205c0.38167 0.14833 0.8178 0.24975 1.4564 0.2789 0.63996 0.029199 0.84428 0.036106 2.4738 0.036106 1.6295 0 1.8339-0.0069 2.4738-0.03611 0.63865-0.02915 1.0748-0.13056 1.4564-0.2789a3.068 3.068 0 0 0 1.7548-1.7548c0.14833-0.38167 0.24974-0.8178 0.2789-1.4564 0.029199-0.63996 0.036106-0.84428 0.036106-2.4738 0-1.6295-0.006906-1.8339-0.036108-2.4738-0.029154-0.63865-0.13056-1.0748-0.2789-1.4564a2.941 2.9411 0 0 0-0.69204-1.0627 2.9411 2.9411 0 0 0-1.0628-0.69219c-0.38166-0.14821-0.8178-0.24963-1.4564-0.27866-0.63986-0.029319-0.84426-0.036226-2.4738-0.036226z"/>
  <path d="m6 4.9189a3.0811 3.0811 0 1 0 3.0811 3.0811 3.0811 3.0811 0 0 0-3.0811-3.0811zm0 5.0811a2 2 0 1 1 2-2 2 2 0 0 1-2 2z"/>
  <ellipse cx="9.2028" cy="4.7972" rx=".71998" ry=".71999"/>
 </g>
</svg>
